<svg width="32" height="32" viewBox="0 0 32 32" fill="none" xmlns="http://www.w3.org/2000/svg">
<rect width="32" height="32" rx="8" fill="#FF5F52"/>
<path fill-rule="evenodd" clip-rule="evenodd" d="M11.4605 8.55176V7.5969C11.4605 7.17523 11.8142 6.83301 12.25 6.83301C12.6858 6.83301 13.0394 7.17523 13.0394 7.5969V8.55176H15.2105V7.5969C15.2105 7.17523 15.5642 6.83301 16 6.83301C16.4358 6.83301 16.7894 7.17523 16.7894 7.5969V8.55176H18.9605V7.5969C18.9605 7.17523 19.3142 6.83301 19.75 6.83301C20.1858 6.83301 20.5394 7.17523 20.5394 7.5969V8.55176H21.3289C22.5266 8.55176 23.5 9.49363 23.5 10.6525V23.0656C23.5 24.2245 22.5266 25.1663 21.3289 25.1663H10.6711C9.47342 25.1663 8.5 24.2245 8.5 23.0656V10.6525C8.5 9.49363 9.47342 8.55176 10.6711 8.55176H11.4605ZM16.3947 12.9441H12.4474C12.0116 12.9441 11.6579 13.2863 11.6579 13.708C11.6579 14.1297 12.0116 14.4719 12.4474 14.4719H16.3947C16.8305 14.4719 17.1842 14.1297 17.1842 13.708C17.1842 13.2863 16.8305 12.9441 16.3947 12.9441ZM12.4474 20.583H20.3421C20.7779 20.583 21.1316 20.2408 21.1316 19.8191C21.1316 19.3975 20.7779 19.0552 20.3421 19.0552H12.4474C12.0116 19.0552 11.6579 19.3975 11.6579 19.8191C11.6579 20.2408 12.0116 20.583 12.4474 20.583ZM12.4474 17.5275H20.3421C20.7779 17.5275 21.1316 17.1852 21.1316 16.7636C21.1316 16.3419 20.7779 15.9997 20.3421 15.9997H12.4474C12.0116 15.9997 11.6579 16.3419 11.6579 16.7636C11.6579 17.1852 12.0116 17.5275 12.4474 17.5275Z" fill="white"/>
</svg>
