<svg width="32" height="32" viewBox="0 0 32 32" fill="none" xmlns="http://www.w3.org/2000/svg">
<rect width="32" height="32" rx="8" fill="#0FD2D2"/>
<path d="M23.3438 21.4688H9.90625V9.28125C9.90625 9.19531 9.83594 9.125 9.75 9.125H8.65625C8.57031 9.125 8.5 9.19531 8.5 9.28125V22.7188C8.5 22.8047 8.57031 22.875 8.65625 22.875H23.3438C23.4297 22.875 23.5 22.8047 23.5 22.7188V21.625C23.5 21.5391 23.4297 21.4688 23.3438 21.4688ZM11.3125 20.2188H21.7812C21.8672 20.2188 21.9375 20.1484 21.9375 20.0625V11.5469C21.9375 11.4062 21.7676 11.3379 21.6699 11.4355L17.5625 15.543L15.1133 13.1211C15.0839 13.092 15.0443 13.0757 15.0029 13.0757C14.9616 13.0757 14.9219 13.092 14.8926 13.1211L11.2012 16.8242C11.1868 16.8386 11.1755 16.8556 11.1678 16.8744C11.1601 16.8932 11.1561 16.9133 11.1562 16.9336V20.0625C11.1562 20.1484 11.2266 20.2188 11.3125 20.2188Z" fill="white"/>
</svg>
