<svg width="32" height="32" viewBox="0 0 32 32" fill="none" xmlns="http://www.w3.org/2000/svg">
<rect width="32" height="32" rx="8" fill="#2EB553"/>
<path d="M22.6662 16.1144H15.886V9.33418C15.886 9.25076 15.8178 9.1825 15.7344 9.1825H15.2414C14.2465 9.18148 13.2612 9.37692 12.3421 9.7576C11.4229 10.1383 10.5879 10.6967 9.8851 11.4009C9.19312 12.0907 8.64188 12.9085 8.2621 13.8088C7.86773 14.7436 7.66675 15.7352 7.66675 16.759C7.66675 17.7829 7.86773 18.7726 8.2621 19.7074C8.6432 20.608 9.18926 21.4195 9.8851 22.1153C10.5809 22.8112 11.3906 23.3572 12.2931 23.7383C13.2262 24.1342 14.2297 24.3374 15.2433 24.3356C16.2382 24.3366 17.2235 24.1412 18.1426 23.7605C19.0618 23.3798 19.8967 22.8214 20.5996 22.1172C21.2954 21.4214 21.8415 20.6118 22.2226 19.7093C22.6184 18.7762 22.8216 17.7727 22.8198 16.759V16.2661C22.8179 16.1827 22.7497 16.1144 22.6662 16.1144ZM24.3329 15.0621L24.2836 14.5274C24.1224 12.7831 23.3488 11.1373 22.1012 9.89541C20.8548 8.65002 19.2123 7.87942 17.4578 7.71686L16.9213 7.66757C16.8322 7.65998 16.7563 7.72824 16.7563 7.81735V15.0924C16.7563 15.1759 16.8246 15.2441 16.908 15.2441L24.1812 15.2252C24.2703 15.2233 24.3404 15.1493 24.3329 15.0621Z" fill="white"/>
</svg>
