<svg width="32" height="32" viewBox="0 0 32 32" fill="none" xmlns="http://www.w3.org/2000/svg">
<rect width="32" height="32" rx="8" fill="#597EF7"/>
<path d="M19.5731 24.3333C19.3752 24.3354 19.1773 24.258 19.0248 24.101L17.0634 22.0793C16.7593 21.7663 16.7562 21.2566 17.0562 20.9393C17.3571 20.6221 17.8457 20.6189 18.1497 20.9318L19.5618 22.3857L23.0105 18.7444C23.3104 18.4272 23.8 18.425 24.104 18.738C24.4071 19.0509 24.4102 19.5607 24.1102 19.8779L20.1183 24.0935C19.9679 24.2526 19.771 24.3322 19.5731 24.3333Z" fill="white"/>
<path fill-rule="evenodd" clip-rule="evenodd" d="M14.3334 17.3193C16.7827 17.3193 18.7451 15.3567 18.7451 12.9092C18.7451 10.4617 16.7827 8.5 14.3334 8.5C11.885 8.5 9.92176 10.4617 9.92176 12.9092C9.92176 15.3567 11.885 17.3193 14.3334 17.3193ZM7.66675 21.4791C7.66675 23.7457 10.7187 24.3332 14.3334 24.3332C15.1605 24.3332 15.9598 24.3033 16.7004 24.2295C15.7644 23.4654 15.1667 22.3025 15.1667 21C15.1667 20.1436 15.4251 19.3475 15.8682 18.6855C15.3736 18.6573 14.8595 18.6449 14.3334 18.6449C10.7379 18.6449 7.66675 19.2115 7.66675 21.4791Z" fill="white"/>
</svg>
