<svg width="94" height="96" viewBox="0 0 94 96" fill="none" xmlns="http://www.w3.org/2000/svg">
<path d="M46 -2.09815e-06C54.8523 -2.48509e-06 63.5321 2.44797 71.0799 7.07327C78.6277 11.6986 84.7495 18.321 88.7683 26.2085C92.7872 34.0959 94.5466 42.941 93.852 51.766C93.1575 60.591 90.036 69.052 84.8328 76.2137C79.6296 83.3753 72.5472 88.9586 64.3688 92.3462C56.1904 95.7338 47.2344 96.7938 38.4912 95.409C29.7479 94.0242 21.5578 90.2486 14.8265 84.4995C8.09518 78.7504 3.08479 71.2518 0.349291 62.8328L2.63183 62.0912C5.23056 70.0892 9.99042 77.2129 16.3852 82.6745C22.7799 88.1361 30.5605 91.723 38.8666 93.0386C47.1727 94.3541 55.6809 93.3471 63.4504 90.1289C71.2199 86.9107 77.9481 81.6066 82.8912 74.803C87.8342 67.9994 90.7996 59.9615 91.4594 51.5777C92.1192 43.194 90.4478 34.7911 86.6299 27.298C82.812 19.805 76.9963 13.5136 69.8259 9.11961C62.6555 4.72557 54.4097 2.4 46 2.4L46 -2.09815e-06Z" fill="#0FD2D2"/>
</svg>
