<svg width="48" height="48" viewBox="0 0 48 48" fill="none" xmlns="http://www.w3.org/2000/svg">
<rect width="48" height="48" rx="8" fill="#40A9FF"/>
<path d="M30.4141 39H16.4141C13.4141 39 12.4141 38.0625 12.4141 35.25V10.1169C12.4141 9.49846 12.9538 9 13.6235 9H33.2046C33.8743 9 34.4141 9.49846 34.4141 10.1169V35.25C34.4141 38.0625 33.4141 39 30.4141 39Z" fill="#6CBDFF"/>
<path d="M33.3301 9H12.4141L16.0857 13.615V32.1791C16.0857 33.8967 17.9407 35.25 20.1392 35.25C25.2234 35.25 23.8262 34.6254 25.1316 33.7059H38.4141V12.8516C38.4141 10.7176 36.124 9 33.3301 9Z" fill="white"/>
<path d="M23.0583 32.7533C22.741 34.175 21.3134 35.25 19.6082 35.25H36.3035C37.751 35.25 39.0001 34.227 39.0001 32.944C39.0001 32.5106 38.6036 32.1638 38.1079 32.1638H23.8911C23.4945 32.1638 23.1376 32.3892 23.0583 32.7533ZM9.00013 12.0689V12.8317C9.00013 13.2652 9.3967 13.612 9.8924 13.612H16.0986V12.0689C16.0986 10.3871 14.5124 9 12.589 9C10.6459 9 9.00013 10.3697 9.00013 12.0689Z" fill="#91D5FF"/>
<path fill-rule="evenodd" clip-rule="evenodd" d="M22.7404 22.1015L21.0603 23.7516C20.6402 22.8742 20.4141 21.9 20.4141 20.875C20.4141 17.0876 23.5595 14 27.4141 14C31.2687 14 34.4141 17.0892 34.4141 20.875C34.4141 24.6608 31.2703 27.75 27.4141 27.75C26.3704 27.75 25.3785 27.5279 24.4851 27.1153L26.1653 25.4652C26.5627 25.5826 26.9827 25.635 27.4141 25.635C30.0845 25.635 32.2606 23.4978 32.2606 20.875C32.2606 18.2523 30.0845 16.115 27.4141 16.115C24.7436 16.115 22.5675 18.2522 22.5675 20.875C22.5675 21.2971 22.6225 21.7096 22.7404 22.1015ZM30.4144 20.875C30.4144 19.25 29.0689 17.9286 27.4144 17.9286C25.7599 17.9286 24.4144 19.25 24.4144 20.875C24.4144 22.5 25.7599 23.8214 27.4144 23.8214C29.0689 23.8214 30.4144 22.5 30.4144 20.875ZM28.4149 20.8735C28.4149 21.4157 27.9664 21.8562 27.4144 21.8562C26.8639 21.8562 26.4154 21.4157 26.4139 20.875C26.4139 20.3329 26.8624 19.8924 27.4144 19.8924C27.9664 19.8924 28.4149 20.3329 28.4149 20.8735Z" fill="#6CBDFF"/>
<path d="M26.2514 22.2657C25.9629 21.995 26.3937 22.2657 26.2514 22.2657C26.4682 22.4695 26.4683 22.8455 26.2515 23.0492L21.3628 27.5972C21.146 27.8009 20.7935 27.8009 20.5767 27.5972C20.3599 27.3935 20.3599 27.0623 20.5767 26.8586L25.4175 22.2657C25.5254 22.1634 25.9771 22.0082 26.2514 22.2657Z" fill="#6CBDFF"/>
<path d="M20.5568 25.875L21.9855 25.875C22.2221 25.875 22.4141 26.055 22.4141 26.2767L22.4141 27.616C22.4141 27.7221 22.3686 27.8249 22.2889 27.9005L20.5748 29.5073C20.4522 29.6222 20.2679 29.6568 20.1077 29.5941C19.9474 29.5322 19.8428 29.3852 19.8428 29.2229L19.8428 28.2853L18.8426 28.2853C18.6695 28.2853 18.5135 28.1873 18.4466 28.037C18.3806 27.8868 18.4166 27.7141 18.5392 27.5992L20.2534 25.9923C20.3339 25.9176 20.4428 25.875 20.5568 25.875Z" fill="#6CBDFF"/>
</svg>
