<svg width="49" height="48" viewBox="0 0 49 48" fill="none" xmlns="http://www.w3.org/2000/svg">
<rect x="0.5" width="48" height="48" rx="8" fill="#FF5F52"/>
<path d="M36.9554 31.6976L36.102 29.3398H32.9245L32.0711 31.6976C32.0056 31.8784 32.0139 32.0776 32.0941 32.2523L33.8476 36.0727C33.967 36.3328 34.2271 36.4995 34.5133 36.4995C34.7995 36.4995 35.0596 36.3328 35.1789 36.0727L36.9324 32.2523C37.0126 32.0776 37.0208 31.8783 36.9554 31.6976Z" fill="#FDF3F0"/>
<path d="M36.9538 31.6976L36.1004 29.3398H34.5117V36.4995C34.7979 36.4995 35.0579 36.3328 35.1773 36.0727L36.9308 32.2523C37.0109 32.0776 37.0192 31.8783 36.9538 31.6976Z" fill="white"/>
<path d="M29.8723 11.5H12.7324C12.3279 11.5 12 11.8279 12 12.2324V35.7673C12 36.1717 12.3279 36.4997 12.7324 36.4997H29.8723C30.2768 36.4997 30.6047 36.1717 30.6047 35.7673V12.2324C30.6047 11.8279 30.2768 11.5 29.8723 11.5Z" fill="#FDF3F0"/>
<path d="M29.8746 11.5H21.3047V36.4997H29.8746C30.2791 36.4997 30.607 36.1717 30.607 35.7673V12.2324C30.607 11.8279 30.2791 11.5 29.8746 11.5Z" fill="white"/>
<path d="M28.2782 18.5156H23.6269C23.2225 18.5156 22.8945 18.1877 22.8945 17.7832C22.8945 17.3787 23.2225 17.0508 23.6269 17.0508H28.2782C28.6827 17.0508 29.0106 17.3787 29.0106 17.7832C29.0106 18.1877 28.6827 18.5156 28.2782 18.5156Z" fill="#FF5F52"/>
<path d="M28.2782 22.959H23.6269C23.2225 22.959 22.8945 22.631 22.8945 22.2266C22.8945 21.8221 23.2225 21.4941 23.6269 21.4941H28.2782C28.6827 21.4941 29.0106 21.8221 29.0106 22.2266C29.0106 22.631 28.6827 22.959 28.2782 22.959Z" fill="#FF5F52"/>
<path d="M28.2782 27.4023H23.6269C23.2225 27.4023 22.8945 27.0744 22.8945 26.6699C22.8945 26.2654 23.2225 25.9375 23.6269 25.9375H28.2782C28.6827 25.9375 29.0106 26.2654 29.0106 26.6699C29.0106 27.0744 28.6827 27.4023 28.2782 27.4023Z" fill="#FF5F52"/>
<path d="M28.2782 32.0166H23.6269C23.2225 32.0166 22.8945 31.6887 22.8945 31.2842C22.8945 30.8797 23.2225 30.5518 23.6269 30.5518H28.2782C28.6827 30.5518 29.0106 30.8797 29.0106 31.2842C29.0106 31.6887 28.6827 32.0166 28.2782 32.0166Z" fill="#FF5F52"/>
<path d="M16.1168 19.3917C15.9225 19.3917 15.7362 19.3146 15.5989 19.1772L14.5505 18.1287C14.2644 17.8427 14.2644 17.379 14.5505 17.0929C14.8365 16.8069 15.3003 16.8069 15.5862 17.0929L16.1168 17.6235L17.8236 15.9167C18.1096 15.6306 18.5734 15.6306 18.8594 15.9167C19.1454 16.2027 19.1454 16.6664 18.8594 16.9524L16.6347 19.1772C16.4974 19.3146 16.311 19.3917 16.1168 19.3917Z" fill="#FF5F52"/>
<path d="M16.1168 23.8351C15.9225 23.8351 15.7362 23.7579 15.5989 23.6205L14.5505 22.5721C14.2644 22.286 14.2644 21.8223 14.5505 21.5363C14.8365 21.2502 15.3003 21.2503 15.5862 21.5363L16.1168 22.0668L17.8236 20.36C18.1096 20.074 18.5734 20.074 18.8594 20.36C19.1454 20.6461 19.1454 21.1098 18.8594 21.3958L16.6347 23.6205C16.4974 23.7579 16.311 23.8351 16.1168 23.8351Z" fill="#FF5F52"/>
<path d="M16.1168 28.2794C15.9225 28.2794 15.7362 28.2023 15.5989 28.0649L14.5505 27.0164C14.2644 26.7303 14.2644 26.2666 14.5505 25.9806C14.8365 25.6946 15.3003 25.6946 15.5862 25.9806L16.1168 26.5112L17.8236 24.8043C18.1096 24.5184 18.5734 24.5183 18.8594 24.8043C19.1454 25.0904 19.1454 25.5541 18.8594 25.8401L16.6347 28.0648C16.4974 28.2023 16.311 28.2794 16.1168 28.2794Z" fill="#FF5F52"/>
<path d="M36.999 13.9858V29.2488C36.999 29.6536 36.6708 29.9812 36.2665 29.9812H32.7598C32.355 29.9812 32.0273 29.6536 32.0273 29.2488V13.9858C32.0273 12.6152 33.1426 11.5 34.5132 11.5C35.8837 11.5 36.999 12.6152 36.999 13.9858Z" fill="#FDF3F0"/>
<path d="M34.5117 11.5V29.9812H36.2651C36.6694 29.9812 36.9975 29.6536 36.9975 29.2488V13.9858C36.9975 12.6152 35.8823 11.5 34.5117 11.5V11.5Z" fill="white"/>
<path d="M32.0273 16.1338H36.999V17.5986H32.0273V16.1338Z" fill="#FF5F52"/>
<path d="M34.5117 16.1338H36.9975V17.5986H34.5117V16.1338Z" fill="#FF5F52"/>
</svg>
