<svg width="49" height="48" viewBox="0 0 49 48" fill="none" xmlns="http://www.w3.org/2000/svg">
<rect x="0.5" width="48" height="48" rx="8" fill="#0FD2D2"/>
<g clip-path="url(#clip0)">
<path d="M13.8945 29.7256L9.5 34.1201V39.0009H18.289V34.1201L13.8945 29.7256Z" fill="#E7F9F9"/>
<path d="M24.5 26.21L20.0469 30.6045V39.0009H28.953V30.6045L24.5 26.21Z" fill="#E7F9F9"/>
<path d="M35.1054 22.6943L30.7109 27.0888V39.0009H39.4999V27.0888L35.1054 22.6943Z" fill="#E7F9F9"/>
<path d="M35.1054 9C33.6463 9 32.4688 10.1776 32.4688 11.6367C32.4688 13.0958 33.6463 14.2734 35.1054 14.2734C36.5646 14.2734 37.7421 13.0958 37.7421 11.6367C37.7421 10.1776 36.5646 9 35.1054 9Z" fill="#E7F9F9"/>
<path d="M35.1054 14.2734C32.6798 14.2734 30.7109 16.2423 30.7109 18.6679V21.3046H39.4999V18.6679C39.4999 16.2423 37.5311 14.2734 35.1054 14.2734Z" fill="#E7F9F9"/>
<path d="M24.5 12.5156C23.0409 12.5156 21.8047 13.6932 21.8047 15.1523C21.8047 16.6114 23.0409 17.789 24.5 17.789C25.9591 17.789 27.1367 16.6114 27.1367 15.1523C27.1367 13.6932 25.9591 12.5156 24.5 12.5156Z" fill="#E7F9F9"/>
<path d="M24.5 17.7891C22.0743 17.7891 20.0469 19.7579 20.0469 22.1836V24.8202H28.953V22.1836C28.953 19.7579 26.9256 17.7891 24.5 17.7891Z" fill="#E7F9F9"/>
<path d="M13.8945 16.0312C12.4354 16.0312 11.2578 17.2088 11.2578 18.6679C11.2578 20.1271 12.4354 21.3046 13.8945 21.3046C15.3536 21.3046 16.5312 20.1271 16.5312 18.6679C16.5312 17.2088 15.3536 16.0312 13.8945 16.0312Z" fill="#E7F9F9"/>
<path d="M13.8945 21.3047C11.4688 21.3047 9.5 23.2735 9.5 25.6992V28.3359H18.289V25.6992C18.289 23.2735 16.3202 21.3047 13.8945 21.3047Z" fill="#E7F9F9"/>
<path d="M13.8945 21.3046V16.0312C15.3536 16.0312 16.5312 17.2088 16.5312 18.6679C16.5312 20.1271 15.3536 21.3046 13.8945 21.3046Z" fill="white"/>
<path d="M18.289 25.6992V28.3359H13.8945V21.3047C16.3202 21.3047 18.289 23.2735 18.289 25.6992Z" fill="white"/>
<path d="M13.8945 29.7256L18.289 34.1201V39.0009H13.8945V29.7256Z" fill="white"/>
<path d="M24.5 17.789V12.5156C25.9591 12.5156 27.1367 13.6932 27.1367 15.1523C27.1367 16.6114 25.9591 17.789 24.5 17.789Z" fill="white"/>
<path d="M28.9531 22.1836V24.8202H24.5V17.7891C26.9257 17.7891 28.9531 19.7579 28.9531 22.1836Z" fill="white"/>
<path d="M24.5 26.21L28.9531 30.6045V39.0009H24.5V26.21Z" fill="white"/>
<path d="M35.1055 14.2734V9C36.5646 9 37.7422 10.1776 37.7422 11.6367C37.7422 13.0958 36.5646 14.2734 35.1055 14.2734Z" fill="white"/>
<path d="M39.5 18.6679V21.3046H35.1055V14.2734C37.5311 14.2734 39.5 16.2423 39.5 18.6679Z" fill="white"/>
<path d="M35.1055 22.6943L39.5 27.0888V39.0009H35.1055V22.6943Z" fill="white"/>
</g>
<defs>
<clipPath id="clip0">
<rect width="30" height="30" fill="white" transform="translate(9.5 9)"/>
</clipPath>
</defs>
</svg>
