<?xml version="1.0" encoding="utf-8"?>
<!-- Generator: Adobe Illustrator 25.2.0, SVG Export Plug-In . SVG Version: 6.00 Build 0)  -->
<svg version="1.1" id="Layer_1" xmlns="http://www.w3.org/2000/svg" xmlns:xlink="http://www.w3.org/1999/xlink" x="0px" y="0px"
	 viewBox="0 0 48 48" style="enable-background:new 0 0 48 48;" xml:space="preserve">
<style type="text/css">
	.st0{fill:#EB5652;}
	.st1{fill:#FFFFFF;}
</style>
<path class="st0" d="M8,0h32c4.4,0,8,3.6,8,8v32c0,4.4-3.6,8-8,8H8c-4.4,0-8-3.6-8-8V8C0,3.6,3.6,0,8,0z"/>
<g>
	<path class="st1" d="M23.2,20.8c0-0.2,0-0.3,0-0.4c0-2.1,0-4.2,0-6.4c0-0.7,0.3-1.1,0.9-1.2c0.2,0,0.5,0,0.7,0.1
		c0.6,0.3,1.1,0.6,1.7,0.9c0.4,0.2,0.6,0.6,0.6,1.1c0,1.8,0,3.6,0,5.3c0,0.1,0,0.2,0,0.4c0.1,0,0.3,0,0.4,0c2.3,0,4.6,0,6.8,0
		c0.6,0,1.2,0.1,1.7,0.5c0.7,0.6,1,1.3,1,2.2c0,2.8,0,5.7,0,8.5c0,0.1,0,0.2,0,0.3c0,0,0,0,0.1,0.1c0.9,0.1,1.3,0.7,1.3,1.6
		c0,0.4,0,0.8,0,1.1c-0.1,0.6-0.6,1.1-1.2,1.1c-0.1,0-0.1,0-0.2,0c-7.8,0-15.7,0-23.5,0c-0.8,0-1.3-0.3-1.4-0.9
		c-0.1-0.6-0.1-1.3,0-2c0.1-0.5,0.5-0.8,1-0.9c0.1,0,0.1,0,0.2,0c0-0.1,0-0.2,0-0.4c0-2.9,0-5.7,0-8.6c0-1.1,0.5-1.9,1.5-2.4
		c0.4-0.2,0.9-0.3,1.3-0.3c2.2,0,4.5,0,6.7,0C22.9,20.8,23,20.8,23.2,20.8z M35.6,32.4c0-2.1,0-4.1,0-6.2c-0.3,0.4-0.6,0.7-0.9,1
		c-1.1,1.3-3,1.3-4-0.1c-0.2-0.3-0.4-0.6-0.7-0.9c-0.6-0.8-1.4-0.8-2,0c-0.3,0.4-0.6,0.8-1,1.2c-1.1,1.2-2.9,1.1-3.9-0.2
		c-0.2-0.3-0.4-0.6-0.7-0.9c-0.6-0.8-1.4-0.8-2.1,0c-0.3,0.4-0.6,0.8-1,1.2c-0.6,0.7-1.4,0.9-2.3,0.8c-0.7-0.1-1.3-0.6-1.7-1.1
		c-0.2-0.3-0.5-0.6-0.8-0.9c0,2.2,0,4.2,0,6.3C21.6,32.4,28.6,32.4,35.6,32.4z M25.1,22.2c-3,0-6,0-9.1,0c-0.1,0-0.3,0-0.4,0
		c-0.6,0.1-1,0.5-1,1.1c0,0.4,0,0.7,0,1.1c0,0.2,0.1,0.2,0.2,0.3c0.3,0.2,0.7,0.4,0.9,0.6c0.3,0.3,0.5,0.6,0.8,0.9
		c0.6,0.8,1.4,0.8,2,0c0.3-0.4,0.6-0.8,1-1.1c1.1-1.2,2.9-1.1,3.9,0.2c0.2,0.3,0.5,0.6,0.7,0.9c0.6,0.7,1.4,0.7,2,0
		c0.3-0.3,0.5-0.7,0.8-1c1.1-1.4,3-1.4,4.1,0.1c0.2,0.3,0.5,0.6,0.7,0.9c0.5,0.6,1.3,0.7,1.9,0c0.2-0.2,0.4-0.5,0.6-0.7
		c0.3-0.4,0.7-0.7,1.2-0.9c0.1,0,0.2-0.2,0.2-0.3c0-0.4,0-0.7,0-1.1c0-0.3-0.1-0.6-0.3-0.8c-0.2-0.3-0.6-0.4-1-0.4
		C31.2,22.2,28.1,22.2,25.1,22.2z M13.3,34.9c7.9,0,15.8,0,23.7,0c0-0.4,0-0.7,0-1.1c-7.9,0-15.8,0-23.7,0
		C13.3,34.2,13.3,34.5,13.3,34.9z M24.5,16.6c0,0.5,0,1,0,1.4c0,0.1,0,0.2,0.1,0.2c0.3,0.2,0.7,0.4,1.1,0.6c0-0.5,0-1,0-1.5
		c0-0.1-0.1-0.2-0.1-0.2C25.2,17,24.9,16.8,24.5,16.6z M25.6,20.8c0-0.3,0-0.6,0-0.9c0-0.1,0-0.1-0.1-0.2c-0.3-0.2-0.6-0.4-1-0.6
		c0,0.6,0,1.1,0,1.7C24.9,20.8,25.3,20.8,25.6,20.8z M25.6,16.3c0-0.4,0-0.7,0-1.1c0,0,0-0.1-0.1-0.1c-0.3-0.2-0.7-0.4-1-0.6
		c0,0.4,0,0.7,0,1c0,0.1,0,0.1,0.1,0.2C24.9,15.9,25.3,16.1,25.6,16.3z"/>
	<path class="st1" d="M27.2,9.5c-0.4,0.2-0.8,0.5-1.1,0.7c-0.4,0.2-0.5,0.7-0.4,1.1c0,0.1,0.1,0.2,0.1,0.4c0.1,0.3-0.1,0.7-0.4,0.8
		c-0.3,0.1-0.7,0-0.9-0.3c-0.6-1-0.3-2.5,0.7-3.2c0.5-0.3,1-0.7,1.4-1.2c0.2-0.3,0.7-0.3,1,0c1.7,1.5,1.3,4.3-0.7,5.2
		c-0.3,0.2-0.7,0.1-0.9-0.3c-0.2-0.3-0.1-0.7,0.2-0.9c0.4-0.2,0.7-0.5,0.9-0.9C27.4,10.5,27.5,10,27.2,9.5z"/>
</g>
</svg>
