<?xml version="1.0" encoding="utf-8"?>
<!-- Generator: Adobe Illustrator 25.2.0, SVG Export Plug-In . SVG Version: 6.00 Build 0)  -->
<svg version="1.1" id="Layer_1" xmlns="http://www.w3.org/2000/svg" xmlns:xlink="http://www.w3.org/1999/xlink" x="0px" y="0px"
	 viewBox="0 0 48 48" style="enable-background:new 0 0 48 48;" xml:space="preserve">
<style type="text/css">
	.st0{fill:#F4826D;}
	.st1{fill:#FFFFFF;}
</style>
<path class="st0" d="M8,0h32c4.4,0,8,3.6,8,8v32c0,4.4-3.6,8-8,8H8c-4.4,0-8-3.6-8-8V8C0,3.6,3.6,0,8,0z"/>
<g>
	<path class="st1" d="M18.9,16.6c-0.4-0.5-0.7-0.8-1-1.2c-0.7-1-0.5-2.3,0.4-3.1c0.9-0.8,2.3-0.9,3.2,0c0.8,0.8,1.6,1.7,2.4,2.7
		c1-1,1.7-1.8,2.5-2.6c1-0.9,2.3-0.9,3.3,0c1,0.9,1.1,2.3,0.2,3.3c-0.2,0.3-0.5,0.5-0.8,0.9c0.9,0,1.7,0,2.4,0c0.8,0,1.6,0,2.4,0
		c1.7,0.1,3,1.4,3,3.2c0,1.1,0,2.2,0,3.3c0,1-0.4,1.9-1.2,2.5c-0.3,0.3-0.4,0.5-0.4,0.9c0,2.6,0,5.2,0,7.8c0,2.1-1.3,3.4-3.4,3.4
		c-5.3,0-10.6,0-16,0c-2,0-3.4-1.3-3.4-3.4c0-2.6,0-5.2,0-7.7c0-0.4-0.1-0.8-0.5-1.1c-0.8-0.6-1.1-1.4-1.2-2.4c0-1.1,0-2.2,0-3.3
		c0-1.8,1.4-3.2,3.2-3.2C15.7,16.5,17.2,16.6,18.9,16.6z M22.4,34.4c0-2.8,0-5.4,0-8.2c-0.7,0-1.3,0-1.9,0c-1.3,0-2.5,0-3.8,0
		c-0.5,0-0.8,0.2-0.8,0.8c0,2.2,0,4.5,0,6.7c0,0.4,0.2,0.6,0.6,0.6C18.4,34.4,20.4,34.4,22.4,34.4z M25.6,34.4c2,0,3.9,0,5.9,0
		c0.5,0,0.6-0.3,0.6-0.8c0-2.1,0-4.2,0-6.3c0-1-0.1-1.1-1.1-1.1c-1.7,0-3.4,0-5.1,0c-0.1,0-0.2,0-0.3,0.1
		C25.6,29,25.6,31.7,25.6,34.4z M25.6,23c2.6,0,5,0,7.5,0c0.2,0,0.5-0.4,0.6-0.6c0.1-0.7,0.1-1.3,0-2c0-0.2-0.3-0.5-0.6-0.6
		c-0.2-0.1-0.5-0.1-0.7-0.1c-2.1,0-4.1,0-6.2,0c-0.2,0-0.4,0-0.6,0C25.6,20.9,25.6,21.9,25.6,23z M22.4,19.7c-0.9,0-1.8,0-2.7,0
		c-1.5,0-3,0-4.5,0c-0.8,0-0.9,0.2-0.9,0.9c0,0.5,0,1,0,1.4c0,0.7,0.2,0.9,0.9,0.9c2.2,0,4.4,0,6.7,0c0.2,0,0.4,0,0.6,0
		C22.4,21.9,22.4,20.9,22.4,19.7z M29,14c-0.2-0.2-0.3-0.5-0.5-0.6c-0.2-0.1-0.7-0.1-0.8,0.1c-0.6,0.5-1.1,1.1-1.7,1.6
		c-0.4,0.4-0.4,0.8,0,1.2c0.3,0.4,0.8,0.3,1.1,0c0.6-0.5,1.1-1.1,1.6-1.6C28.8,14.5,28.8,14.3,29,14z M19.1,14
		c0.1,0.2,0.1,0.4,0.2,0.5c0.6,0.6,1.2,1.3,1.9,1.9c0.2,0.1,0.7,0.1,0.9-0.1c0.2-0.2,0.3-0.7,0.1-0.9c-0.6-0.7-1.2-1.3-1.9-1.9
		c-0.1-0.1-0.5-0.1-0.7,0C19.3,13.5,19.2,13.8,19.1,14z"/>
</g>
</svg>
