<?xml version="1.0" encoding="utf-8"?>
<!-- Generator: Adobe Illustrator 25.2.0, SVG Export Plug-In . SVG Version: 6.00 Build 0)  -->
<svg version="1.1" id="Layer_1" xmlns="http://www.w3.org/2000/svg" xmlns:xlink="http://www.w3.org/1999/xlink" x="0px" y="0px"
	 viewBox="0 0 48 48" style="enable-background:new 0 0 48 48;" xml:space="preserve">
<style type="text/css">
	.st0{fill:#ED6C97;}
	.st1{fill:#FFFFFF;}
</style>
<path class="st0" d="M8,0h32c4.4,0,8,3.6,8,8v32c0,4.4-3.6,8-8,8H8c-4.4,0-8-3.6-8-8V8C0,3.6,3.6,0,8,0z"/>
<g>
	<path class="st1" d="M7.9,15.4c0-0.1,0-0.2,0.1-0.2c0.2-0.5,0.5-0.9,1-1c2.1-0.7,4.2-1.3,6.2-2c2.7-0.9,5.5-1.8,8.2-2.6
		c0.1,0,0.2-0.1,0.3-0.1c0.1,0,0.2,0,0.4,0c0,0,0.1,0,0.1,0c0.5,0.1,0.9,0.4,1.1,1c0,0.1,0.1,0.2,0.1,0.3c0,0-0.1,0-0.1,0
		c-0.3-0.1-0.6-0.2-0.8-0.2c-0.3-0.1-0.6,0-0.9,0c-1.4,0.4-2.8,0.9-4.1,1.3c-3.4,1.1-6.8,2.2-10.2,3.3c-0.2,0.1-0.4,0.2-0.4,0.4
		c0,0.1,0,0.2,0,0.3c0.4,1.3,0.9,2.6,1.3,3.9c1,3,2,6.1,3,9.1c0.2,0.7,0.4,1.3,0.6,2c0,0,0,0.1,0,0.1c0,1,0,2,0,3.1c0,0,0,0,0,0
		c0,0,0-0.1,0-0.1c-0.6-1.8-1.2-3.6-1.8-5.5c-1.4-4.1-2.7-8.2-4.1-12.4c0-0.1-0.1-0.2-0.1-0.3C7.9,15.6,7.9,15.5,7.9,15.4z"/>
	<path class="st1" d="M40.1,17.5c-0.2-0.2-0.5-0.3-0.8-0.3c-0.1,0-0.2,0-0.3,0c-0.1,0-0.2-0.1-0.3-0.1c-1.5-0.5-3-1-4.5-1.5
		c-0.1,0-0.1,0-0.1-0.1c0-0.4-0.1-0.7-0.3-1c0,0,0,0,0-0.1c0.1,0,0.1,0,0.1,0c1.7,0.6,3.4,1.1,5.1,1.7c0.6,0.2,0.9,0.6,1.1,1.2
		c0,0,0,0,0,0.1C40.1,17.4,40.1,17.5,40.1,17.5z"/>
	<path class="st1" d="M32.7,37.6C32.7,37.6,32.7,37.6,32.7,37.6c0.9-0.6,1.3-1.3,1.4-2.3c0-0.1,0-0.2,0.1-0.3
		c0.1-0.2,0.2-0.5,0.2-0.8c0-0.6,0-1.2,0.2-1.8c0-0.1,0.1-0.1,0.1-0.1c0.2,0,0.4-0.1,0.6-0.2c0,0,0.1,0,0.1,0c0,0,0,0.1,0,0.1
		c-0.5,1.4-1,2.9-1.4,4.3C33.7,37.1,33.3,37.4,32.7,37.6C32.8,37.6,32.8,37.6,32.7,37.6C32.7,37.6,32.7,37.6,32.7,37.6z"/>
	<path class="st1" d="M31.3,28.6c-0.1-0.2-0.1-0.3-0.1-0.5c0-0.3,0.1-0.5,0.3-0.7c1.5-1.8,3-3.6,4.4-5.4c1-1.2,2-2.4,2.9-3.6
		c0.1-0.1,0.3-0.2,0.5-0.2c0.2,0,0.3,0.1,0.4,0.3c0.1,0.2,0,0.4-0.1,0.5c-0.4,0.5-0.8,0.9-1.2,1.4c-2.1,2.5-4.1,5-6.2,7.5
		c-0.1,0.1-0.1,0.1,0,0.2c0.7,0.7,1.3,1.4,2,2.1c0.1,0.1,0.1,0.1,0.1,0c1.6-1.4,3.2-2.7,4.7-4.1c0.3-0.3,0.7-0.2,0.8,0.2
		c0.1,0.2,0,0.4-0.2,0.5c-0.3,0.3-0.7,0.6-1,0.9c-1.2,1.1-2.5,2.2-3.7,3.2c-0.3,0.3-0.7,0.4-1.1,0.2c0,0,0,0-0.1,0
		c-0.1,0.2-0.2,0.5-0.3,0.7c-0.2,0.6-0.3,1.3-0.3,2c0,0.1,0,0.2,0,0.3c0,0.3-0.2,0.6-0.5,0.7c-2.3,0.7-4.6,1.4-6.9,2.1
		c-0.1,0-0.2,0.1-0.3,0c-0.1-0.1-0.1-0.2,0-0.3c0.7-2.3,1.4-4.6,2-6.9c0.1-0.4,0.4-0.6,0.8-0.6c0.8,0,1.5-0.1,2.2-0.3
		C30.8,28.8,31,28.7,31.3,28.6C31.3,28.6,31.3,28.6,31.3,28.6z M32,29.4c-0.2,0.1-0.4,0.2-0.6,0.3c-0.9,0.4-1.8,0.5-2.8,0.5
		c-0.1,0-0.1,0-0.1,0.1c-0.4,1.4-0.8,2.8-1.2,4.2c-0.1,0.2-0.1,0.3-0.2,0.5c0,0,0,0,0,0c0,0,0-0.1,0.1-0.1c0.8-0.8,1.6-1.6,2.5-2.5
		c0.1-0.1,0.2-0.2,0.2-0.3c0,0,0,0,0,0c0.1-0.4,0.4-0.6,0.8-0.6c0.4,0,0.7,0.4,0.7,0.8c0,0.4-0.3,0.7-0.7,0.7c0,0-0.1,0-0.1,0.1
		c-0.7,0.7-1.4,1.4-2.1,2.1c0,0,0,0-0.1,0.1c0,0,0,0,0.1,0c1.3-0.4,2.6-0.8,3.9-1.2c0,0,0.1,0,0.1-0.1c0-0.4,0-0.8,0.1-1.2
		c0.1-0.7,0.3-1.4,0.7-2c0-0.1,0.1-0.1,0.1-0.2C32.8,30.2,32.4,29.8,32,29.4z"/>
	<path class="st1" d="M32.1,25C32.1,25,32.1,24.9,32.1,25c0-3.1,0-6.2,0-9.2c0-0.1,0-0.3-0.1-0.4c-0.1-0.1-0.2-0.2-0.4-0.2
		c0,0-0.1,0-0.1,0c-5,0-10,0-15,0c-0.4,0-0.6,0.2-0.6,0.6c0,4.5,0,9,0,13.5c0,0.1,0,0.2,0,0.2c-0.1,0.2-0.3,0.4-0.5,0.3
		c-0.2,0-0.4-0.2-0.4-0.5c0,0,0-0.1,0-0.1c0-4.5,0-9,0-13.5c0-0.9,0.7-1.5,1.5-1.5c5,0,10,0,15,0c0.9,0,1.5,0.7,1.5,1.5
		c0,2.7,0,5.3,0,8c0,0,0,0.1,0,0.1C32.7,24.2,32.4,24.6,32.1,25C32.1,25,32.1,25,32.1,25C32.1,25,32.1,25,32.1,25z"/>
	<path class="st1" d="M24,21.2c1.8,0,3.5,0,5.3,0c0.6,0,1,0.4,1,1c0,1,0,2,0,3c0,0.6-0.5,1-1,1c-2.9,0-5.7,0-8.6,0
		c-0.6,0-1.3,0-1.9,0c-0.6,0-1-0.4-1-1c0-1,0-2,0-3c0-0.6,0.4-1,1-1C20.5,21.2,22.3,21.2,24,21.2C24,21.2,24,21.2,24,21.2z
		 M18.7,25.3c3.5,0,7,0,10.6,0c0-1,0-2,0-3c-3.5,0-7,0-10.6,0C18.7,23.3,18.7,24.3,18.7,25.3z"/>
	<path class="st1" d="M24.7,35.8c-0.1,0.3-0.2,0.7-0.3,1c0,0,0,0,0,0c0,0-0.1,0-0.1,0c-2.6,0-5.3,0-7.9,0c-0.8,0-1.4-0.5-1.5-1.2
		c0-0.1,0-0.2,0-0.3c0-0.7,0-1.3,0-2c0-0.1,0-0.2,0-0.3c0-0.3,0.2-0.5,0.5-0.5c0.3,0,0.5,0.2,0.5,0.5c0,0.1,0,0.2,0,0.3
		c0,0.6,0,1.3,0,1.9c0,0.3,0.2,0.6,0.6,0.6c2.7,0,5.4,0,8.1,0C24.7,35.8,24.7,35.8,24.7,35.8z"/>
	<path class="st1" d="M30.1,28c-0.2,0-0.4,0.1-0.6,0.1c-0.4,0.1-0.8,0.1-1.2,0.1c-0.5,0-0.9,0.2-1.3,0.5c0,0-0.1,0.1-0.1,0.1
		c-2.9,0-5.8,0-8.7,0c-0.4,0-0.7-0.4-0.5-0.7c0.1-0.2,0.2-0.3,0.4-0.3c0.1,0,0.1,0,0.2,0c3.8,0,7.6,0,11.4,0
		C29.8,27.8,30,27.8,30.1,28C30.1,28,30.1,28,30.1,28C30.1,28,30.1,28,30.1,28z"/>
	<path class="st1" d="M26.5,29.8c-0.1,0.2-0.1,0.5-0.2,0.7c0,0.1-0.1,0.2-0.1,0.3c0,0.1,0,0.1-0.1,0.1c-0.4,0-0.8,0-1.3,0
		c-2.2,0-4.4,0-6.6,0c-0.1,0-0.1,0-0.2,0c-0.2-0.1-0.4-0.3-0.3-0.5c0-0.2,0.2-0.4,0.5-0.4c0,0,0.1,0,0.1,0c2.7,0,5.4,0,8.2,0
		C26.5,29.8,26.5,29.8,26.5,29.8z"/>
	<path class="st1" d="M27,18.5c0-0.2,0-0.5,0-0.7c0-0.6,0.5-1,0.9-1.1c0.3,0,0.5,0,0.7,0.1c0.1,0,0.1,0,0.2,0
		c0.6-0.3,1.2-0.1,1.5,0.4c0.1,0.1,0.1,0.3,0.1,0.5c0,0.5,0,1,0,1.5c0,0.3-0.2,0.4-0.5,0.4c-0.3,0-0.5-0.2-0.5-0.4c0-0.5,0-1,0-1.5
		c0-0.1,0-0.1-0.1-0.2c-0.1,0-0.1,0-0.2,0c-0.1,0-0.1,0.1-0.1,0.2c0,0.5,0,1,0,1.5c0,0.2-0.1,0.4-0.3,0.4c-0.2,0.1-0.4,0-0.6-0.1
		c-0.1-0.1-0.1-0.2-0.1-0.3c0-0.5,0-1,0-1.5c0-0.1-0.1-0.2-0.3-0.2c-0.1,0-0.1,0.1-0.1,0.2c0,0.5,0,1,0,1.5c0,0.4-0.4,0.6-0.7,0.4
		c-0.2-0.1-0.3-0.2-0.3-0.4c0,0,0,0,0,0C27,19,27,18.8,27,18.5z"/>
	<path class="st1" d="M25.9,31.8c-0.1,0.3-0.1,0.5-0.2,0.7c0,0.1,0,0.2-0.1,0.2c-0.1,0-0.2,0-0.3,0c-2.4,0-4.8,0-7.1,0
		c-0.4,0-0.7-0.4-0.5-0.8c0.1-0.2,0.2-0.2,0.4-0.3c0,0,0,0,0.1,0C20.8,31.8,23.3,31.8,25.9,31.8C25.9,31.8,25.9,31.8,25.9,31.8z"/>
	<path class="st1" d="M29.8,13.2C29.8,13.2,29.7,13.2,29.8,13.2c-1.1,0-2.1,0-3.1,0c-0.1,0-0.1,0-0.2,0c-0.7-0.2-1.4-0.5-2.2-0.7
		c-0.3-0.1-0.6,0-0.7,0.4c0,0.1-0.1,0.2-0.1,0.3c0,0,0,0-0.1,0c-0.3,0-0.7,0-1,0c0,0,0,0,0,0c0-0.1,0-0.1,0.1-0.2
		c0.1-0.2,0.1-0.3,0.2-0.5c0.3-0.8,1.1-1.2,1.9-1C26.3,12.1,28,12.6,29.8,13.2C29.8,13.2,29.8,13.2,29.8,13.2
		C29.8,13.2,29.8,13.2,29.8,13.2z"/>
	<path class="st1" d="M24.5,19c-0.3,0-0.5,0-0.8,0c0,0.1,0,0.2,0,0.3c0,0.2-0.1,0.4-0.3,0.4c-0.2,0.1-0.4,0-0.6-0.2
		c0-0.1-0.1-0.1-0.1-0.2c0-0.5,0-1,0-1.4c0-0.3,0.1-0.5,0.3-0.7c0.5-0.6,1.6-0.6,2.1,0c0.2,0.2,0.3,0.4,0.2,0.7c0,0.5,0,0.9,0,1.4
		c0,0.3-0.2,0.4-0.5,0.4c-0.3,0-0.5-0.2-0.5-0.4C24.5,19.2,24.5,19.1,24.5,19z M23.8,18.1c0.3,0,0.5,0,0.8,0c0-0.2,0-0.4-0.2-0.5
		c-0.2-0.1-0.3-0.1-0.5,0C23.7,17.8,23.8,17.9,23.8,18.1z"/>
	<path class="st1" d="M34.1,27.6c0-0.2,0.1-0.3,0.2-0.4c0.9-0.8,1.7-1.7,2.6-2.5c0.2-0.2,0.5-0.5,0.7-0.7c0.2-0.2,0.4-0.2,0.6-0.1
		c0.2,0.1,0.3,0.3,0.3,0.5c0,0.1-0.1,0.3-0.2,0.4c-0.8,0.8-1.6,1.5-2.4,2.3c-0.3,0.3-0.6,0.6-0.9,0.9c-0.2,0.2-0.4,0.2-0.6,0.1
		C34.2,27.9,34.1,27.8,34.1,27.6z"/>
	<path class="st1" d="M17.5,18.2c0-0.2,0-0.3,0-0.5c0.1-0.5,0.4-0.8,0.9-1c0.5-0.2,1-0.1,1.4,0.3c0.1,0.1,0.2,0.2,0.2,0.3
		c0.1,0.1,0.1,0.3,0,0.4c-0.2,0.2-0.5,0.2-0.7,0c0,0-0.1-0.1-0.1-0.1c-0.1-0.2-0.4-0.2-0.6-0.1c-0.1,0.1-0.2,0.2-0.2,0.3
		c0,0.2,0,0.4,0,0.6c0,0.3,0.3,0.4,0.5,0.4c0.1,0,0.2-0.1,0.3-0.2c0.2-0.2,0.5-0.3,0.7,0C20,18.8,20,19,20,19.1
		c-0.2,0.3-0.5,0.5-0.8,0.6c-0.4,0.1-0.9,0-1.2-0.2c-0.3-0.2-0.5-0.5-0.4-0.9C17.5,18.4,17.5,18.3,17.5,18.2
		C17.5,18.2,17.5,18.2,17.5,18.2z"/>
	<path class="st1" d="M21.2,18.9c0,0,0.1,0,0.1,0c0.3,0,0.6,0,0.9,0c0.1,0,0.1,0,0.2,0c0.2,0.1,0.4,0.2,0.3,0.4
		c0,0.2-0.2,0.4-0.4,0.4c-0.1,0-0.1,0-0.2,0c-0.4,0-0.9,0-1.3,0c-0.3,0-0.5-0.2-0.5-0.5c0-0.7,0-1.3,0-2c0-0.2,0.1-0.4,0.3-0.4
		c0.2-0.1,0.4-0.1,0.5,0.1c0.1,0.1,0.2,0.2,0.2,0.3c0,0.5,0,1.1,0,1.6C21.2,18.8,21.2,18.8,21.2,18.9z"/>
	<path class="st1" d="M13.9,19.9c0,0.3,0,0.7,0,1c0,0,0,0.1,0,0.1c-0.1,0-0.2,0.1-0.3,0.1c0.1,0.2,0.1,0.3,0.2,0.5
		c0.1,0.3,0.2,0.6,0.1,0.9c0,0.7,0,1.4,0,2.1c0,0,0,0.1,0,0.1c0,0,0,0-0.1,0c-0.1-0.1-0.2-0.3-0.3-0.4c-0.3-0.9-0.6-1.9-0.9-2.8
		c-0.2-0.5,0.1-1.1,0.6-1.3C13.5,20,13.7,20,13.9,19.9z"/>
	<path class="st1" d="M26.7,18.2c0,0.4,0,0.7,0,1.1c0,0.3-0.2,0.4-0.5,0.4c-0.3,0-0.5-0.2-0.5-0.4c0-0.7,0-1.4,0-2.1
		c0-0.3,0.2-0.4,0.5-0.4c0.3,0,0.5,0.2,0.5,0.4C26.7,17.5,26.7,17.9,26.7,18.2z"/>
	<path class="st1" d="M30.1,36.8c0.9-0.3,1.9-0.6,2.8-0.9c0,0,0,0,0,0.1c-0.3,0.5-0.7,0.8-1.3,0.8C31.1,36.9,30.6,36.9,30.1,36.8
		C30.1,36.9,30.1,36.9,30.1,36.8C30.1,36.8,30.1,36.8,30.1,36.8z"/>
</g>
</svg>
