<?xml version="1.0" encoding="utf-8"?>
<!-- Generator: Adobe Illustrator 25.2.0, SVG Export Plug-In . SVG Version: 6.00 Build 0)  -->
<svg version="1.1" id="Layer_1" xmlns="http://www.w3.org/2000/svg" xmlns:xlink="http://www.w3.org/1999/xlink" x="0px" y="0px"
	 viewBox="0 0 48 48" style="enable-background:new 0 0 48 48;" xml:space="preserve">
<style type="text/css">
	.st0{fill:#A1BC5C;}
	.st1{fill:#FFFFFF;}
</style>
<path class="st0" d="M8,0h32c4.4,0,8,3.6,8,8v32c0,4.4-3.6,8-8,8H8c-4.4,0-8-3.6-8-8V8C0,3.6,3.6,0,8,0z"/>
<g>
	<path class="st1" d="M28,38.1c-4.2,0-8.3,0-12.5,0c-1.9,0-3.2-1.5-3.2-3.4c0-5.5,0-11,0-16.5c0-0.5,0.3-1,0.6-1.4
		c1.8-1.8,3.5-3.5,5.4-5.2c0.3-0.3,0.9-0.6,1.4-0.6c3.6,0,7.1,0,10.7,0c1.9,0,3.3,1.4,3.3,3.2c0,3.3,0,6.6,0,9.9
		c0,0.1,0,0.2-0.1,0.3c-0.5,0-0.9,0-1.5,0c0-0.3,0-0.6,0-0.9c0-3,0-5.9,0-8.9c0-1.5-0.6-2.1-2.1-2.1c-3.3,0-6.6,0-10,0
		c0,0.7,0,1.4,0,2.1c0,2.4-1.3,3.8-3.7,3.8c-0.8,0-1.5,0-2.4,0c0,0.3,0,0.5,0,0.8c0,5,0,10,0,15c0,1.5,0.6,2.1,2.1,2.1
		c3.2,0,6.4,0,9.6,0c0.8,0,1.4,0.1,1.9,0.8c0.2,0.2,0.5,0.4,0.7,0.6C28.1,37.9,28,38,28,38.1z"/>
	<path class="st1" d="M32.8,26.3c3.3,0,5.8,2.6,5.8,5.8c0,3.3-2.6,5.8-5.8,5.8c-3.2,0-5.8-2.6-5.8-5.8C27,28.9,29.6,26.3,32.8,26.3z
		 M32.4,28.3c0,0.1,0.1,0.1,0.1,0.2c-0.3,0.3-0.6,0.7-1,1c-1,0.7-1,2,0,2.6c0.4,0.3,0.9,0.4,1.3,0.7c0.2,0.2,0.4,0.5,0.6,0.7
		c-0.3,0.2-0.6,0.5-0.9,0.5c-0.5,0-0.9-0.2-1.4-0.3c-0.4,0.9-0.4,0.9,1.1,1.5c0,0.2,0.1,0.5,0.1,0.7c0.6,0.1,0.9,0.1,0.9-0.6
		c0-0.2,0.3-0.4,0.5-0.5c0.6-0.3,1-0.8,1-1.5c0-0.7-0.4-1.3-1-1.6c-0.3-0.2-0.7-0.3-1.1-0.5c-0.2-0.1-0.3-0.4-0.4-0.6
		c0.2-0.1,0.5-0.4,0.7-0.4c0.4,0,0.9,0.1,1.3,0.2c0.4-0.8,0.4-1-0.2-1.1c-0.6-0.1-0.9-0.4-0.9-1C32.9,28.3,32.7,28.3,32.4,28.3z"/>
	<path class="st1" d="M22.9,20.7c2,0,4.1,0,6.1,0c0.6,0,1.1,0.1,1.1,0.8c0,0.7-0.5,0.8-1.1,0.8c-4.1,0-8.2,0-12.2,0
		c-0.6,0-1.1-0.1-1.1-0.8c0-0.7,0.6-0.8,1.2-0.8C18.8,20.7,20.9,20.7,22.9,20.7z"/>
	<path class="st1" d="M22.9,25.4c-2,0-4,0-6,0c-0.6,0-1.2,0-1.2-0.8c0-0.7,0.6-0.8,1.2-0.8c4.1,0,8.2,0,12.2,0c0.5,0,1,0.1,1.1,0.7
		c0.1,0.5-0.3,0.9-1,0.9C27.1,25.4,25,25.4,22.9,25.4z"/>
	<path class="st1" d="M27.3,26.9c-0.6,1.3-1.4,1.7-2.7,1.6c-2.6-0.1-5.2,0-7.7,0c-0.6,0-1.1-0.1-1.1-0.8c0-0.7,0.6-0.8,1.2-0.8
		C20.3,27,23.7,26.9,27.3,26.9z"/>
	<path class="st1" d="M25.4,33.2c0.1,0.6,0.3,1,0.4,1.5c-0.2,0-0.4,0-0.5,0c-2.8,0-5.7,0-8.5,0c-0.6,0-1.1-0.1-1.1-0.8
		c0-0.7,0.5-0.8,1.1-0.8C19.6,33.2,22.5,33.2,25.4,33.2z"/>
	<path class="st1" d="M25.3,31.7c-3,0-5.9,0-8.9,0c-0.5,0-0.9-0.3-0.8-0.8c0.1-0.3,0.5-0.7,0.8-0.7c3-0.1,6,0,9.1,0
		C25.5,30.6,25.4,31.1,25.3,31.7z"/>
	<path class="st1" d="M25.9,19.1c-1.1,0-2.2,0-3.4,0c-0.5,0-1-0.2-1-0.8c0-0.6,0.4-0.8,0.9-0.8c2.2,0,4.5,0,6.7,0c0.5,0,1,0.2,1,0.8
		c0,0.6-0.4,0.8-0.9,0.8C28.1,19.1,27,19.1,25.9,19.1z"/>
</g>
</svg>
