<svg width="48" height="48" viewBox="0 0 48 48" fill="none" xmlns="http://www.w3.org/2000/svg">
<rect width="48" height="48" rx="8" fill="#2EB553"/>
<path d="M26.2777 17.4943L23.996 16.4195L21.7127 17.4904C21.4615 17.6089 21.1579 17.5887 20.9271 17.439C20.6978 17.2899 20.5835 17.0367 20.6315 16.7867L21.0691 14.5147L19.2249 12.9041C19.0218 12.7264 18.949 12.4614 19.0364 12.2205C19.1244 11.979 19.3582 11.8032 19.6392 11.7674L22.1918 11.4374L23.3349 9.37109C23.4608 9.14386 23.72 9 24.0032 9H24.004C24.2879 9 24.5471 9.14453 24.6723 9.37238L25.811 11.4406L28.3622 11.7746C28.6432 11.811 28.8762 11.9875 28.9636 12.229C29.0509 12.4699 28.9774 12.7349 28.7742 12.9119L26.9264 14.5192L27.3596 16.7925C27.4077 17.0425 27.2926 17.2951 27.0625 17.4442C26.8325 17.5933 26.5284 17.6124 26.2777 17.4943Z" fill="white"/>
<path d="M9 28.1426C9 27.1998 9 26.7284 9.29289 26.4355C9.58579 26.1426 10.0572 26.1426 11 26.1426H15.7498C16.6926 26.1426 17.164 26.1426 17.4569 26.4355C17.7498 26.7284 17.7498 27.1998 17.7498 28.1426V38.9993H9V28.1426Z" fill="#EBFAEF"/>
<path d="M19 22.8564C19 22.3042 19.4477 21.8564 20 21.8564H27.9998C28.5521 21.8564 28.9998 22.3042 28.9998 22.8564V38.9987H19V22.8564Z" fill="white"/>
<path d="M30.25 32.4277C30.25 31.4849 30.25 31.0135 30.5429 30.7206C30.8358 30.4277 31.3072 30.4277 32.25 30.4277H36.9998C37.9426 30.4277 38.414 30.4277 38.7069 30.7206C38.9998 31.0135 38.9998 31.4849 38.9998 32.4277V38.9989H30.25V32.4277Z" fill="#EBFAEF"/>
<path d="M25.0409 29.6735H23.6298V26.0387L21.9453 26.8081V25.8463L24.8896 24.3262H25.0409V29.6735Z" fill="#2EB553"/>
</svg>
