<?xml version="1.0" encoding="utf-8"?>
<!-- Generator: Adobe Illustrator 25.2.0, SVG Export Plug-In . SVG Version: 6.00 Build 0)  -->
<svg version="1.1" id="Layer_1" xmlns="http://www.w3.org/2000/svg" xmlns:xlink="http://www.w3.org/1999/xlink" x="0px" y="0px"
	 viewBox="0 0 48 48" style="enable-background:new 0 0 48 48;" xml:space="preserve">
<style type="text/css">
	.st0{fill:#436CFF;}
	.st1{fill:#FFFFFF;}
</style>
<path class="st0" d="M8,0h32c4.4,0,8,3.6,8,8v32c0,4.4-3.6,8-8,8H8c-4.4,0-8-3.6-8-8V8C0,3.6,3.6,0,8,0z"/>
<g>
	<path class="st1" d="M24.1,18.6c0.5-0.8,1.1-1.1,2-0.7c0.9,0.4,1.4,1.1,1.4,2.1c0,1.5,0,3,0,4.4c0,0.8-0.5,1.2-1.5,1.5
		c0,2.1,0,4.3,0,6.5c0,1.2-0.2,1.4-1.4,1.4c-0.5,0-1,0-1.6,0c-0.8,0-1.1-0.4-1.1-1.2c0-2-0.1-4-0.2-6c0-0.5-0.1-0.7-0.6-1
		c-0.3-0.2-0.7-0.7-0.7-1.2c-0.1-1.5-0.1-3,0-4.5c0-1,0.6-1.8,1.6-2.1C22.8,17.6,23.1,17.7,24.1,18.6z"/>
	<path class="st1" d="M18.2,17c1.3-1.2,2.1-1.1,3.2,0.1c-1.5,0.8-1.8,2.2-1.8,3.8c0.1,1-0.1,2,0,3c0.1,0.7,0.4,1.3,0.6,2
		c0.1,0.2,0.2,0.5,0.2,0.7c0,1.5-0.1,3-0.1,4.4c0,0.8-0.4,1.2-1.2,1.1c-0.6,0-1.1,0-1.7,0c-1,0-1.2-0.3-1.3-1.2
		c-0.1-2-0.1-4.1-0.2-6.1c0-0.4-0.1-0.6-0.5-0.8c-0.4-0.2-0.7-0.7-0.7-1.1c-0.1-1.6,0-3.1,0-4.7c0-0.9,0.5-1.5,1.3-1.8
		C16.9,15.9,17.7,16.1,18.2,17z"/>
	<path class="st1" d="M26.6,17.1c1.3-1.3,1.9-1.3,3.2-0.1c0.5-1,1.3-1.1,2.2-0.7c1,0.5,1.3,1.3,1.3,2.4c0,1.3,0.1,2.7,0,4
		c0,0.5-0.4,1.1-0.7,1.3c-0.4,0.3-0.5,0.4-0.5,0.9c0,2-0.1,4-0.2,6c0,1.1-0.3,1.3-1.4,1.3c-0.6,0-1.2,0-1.7,0c-0.6,0-1-0.3-1-1
		c-0.1-1.6-0.1-3.2-0.1-4.8c0-0.2,0-0.4,0.1-0.5c0.7-0.7,0.7-1.6,0.7-2.4c0-0.9,0-1.7,0-2.6C28.5,19.3,28.1,18,26.6,17.1z"/>
	<path class="st1" d="M15.4,29.6c-0.2,0.1-0.5,0.2-0.7,0.2c-1,0.4-2.1,0.7-3.1,1.2c-1.2,0.7-1.3,1.7,0,2.2c1.6,0.7,3.4,1.3,5.1,1.5
		c5.6,0.9,11.2,0.8,16.7-0.4c1.1-0.2,2.2-0.7,3.1-1.2c1-0.6,1-1.5,0-2c-1-0.5-2.1-0.9-3.2-1.3c-0.3-0.1-0.5-0.2-0.8-0.3
		c0.1-0.2,0.2-0.3,0.2-0.3c2,0.3,3.9,0.8,5.5,2.1c1.2,0.9,1.2,2,0,3c-1.5,1.1-3.2,1.6-5,2c-6.7,1.4-13.4,1.4-20.1-0.4
		c-1.2-0.3-2.3-0.8-3.3-1.5c-1.5-0.9-1.4-2.2,0-3.2c1.6-1.2,3.5-1.6,5.4-2C15.3,29.4,15.4,29.5,15.4,29.6z"/>
	<path class="st1" d="M21.7,14.4c0-1.3,1.1-2.3,2.4-2.3c1.3,0,2.3,1.1,2.2,2.4c0,1.2-1.1,2.2-2.3,2.2C22.7,16.8,21.7,15.7,21.7,14.4
		z"/>
	<path class="st1" d="M20.6,13c0,1.3-1,2.3-2.3,2.3c-1.3,0-2.3-1-2.3-2.3c0-1.2,1-2.3,2.3-2.3C19.5,10.6,20.6,11.7,20.6,13z"/>
	<path class="st1" d="M32,12.9c0,1.3-1,2.3-2.3,2.3c-1.3,0-2.3-1-2.3-2.3c0-1.3,1-2.3,2.2-2.3C31,10.6,32,11.6,32,12.9z"/>
</g>
</svg>
