<?xml version="1.0" encoding="utf-8"?>
<!-- Generator: Adobe Illustrator 25.2.0, SVG Export Plug-In . SVG Version: 6.00 Build 0)  -->
<svg version="1.1" id="Layer_1" xmlns="http://www.w3.org/2000/svg" xmlns:xlink="http://www.w3.org/1999/xlink" x="0px" y="0px"
	 viewBox="0 0 48 48" style="enable-background:new 0 0 48 48;" xml:space="preserve">
<style type="text/css">
	.st0{fill:#EB5652;}
	.st1{fill:#FFFFFF;}
</style>
<path class="st0" d="M8,0h32c4.4,0,8,3.6,8,8v32c0,4.4-3.6,8-8,8H8c-4.4,0-8-3.6-8-8V8C0,3.6,3.6,0,8,0z"/>
<g>
	<path class="st1" d="M35.8,31.5c-0.1-0.5,0-1-0.2-1.4c-0.2-0.9-1.1-1.5-2-1.4c-1,0.1-1.7,0.8-1.8,1.8c0,0.7,0,1.3,0,2.1
		c-0.6,0-1.1,0-1.6,0c-1.4,0-2.3,0.8-2.3,1.9c0,1.2,0.9,1.9,2.3,1.9c0.1,0,0.3,0,0.5,0c-3.7,2.6-10.9,2.9-16-1.9
		C9.6,29.6,9.2,21.3,13.8,16c4.9-5.6,13.1-6.4,18.8-1.8C38.3,18.8,38.9,26.5,35.8,31.5z M15.4,24.8c0-1.6,0.5-3.5,1.4-4.8
		c1.9-2.9,5.5-4.5,8.8-3.9c3.4,0.6,6.2,3.3,6.9,6.8c0.2,1.1,0,2.4,0.1,3.5c0,0.4,0.1,0.8,0.4,1c0.2,0.2,0.7,0.2,0.9,0.1
		c0.3-0.2,0.6-0.7,0.6-1.1c0.1-1,0.2-2.1,0.1-3.1c-0.6-5.4-5.7-9.6-11-9.3c-5.7,0.4-10.2,5.1-10.1,10.7c0.1,5.2,3.9,9.7,9,10.4
		c1.2,0.2,2.5,0,3.7-0.1c0.5,0,0.9-0.5,0.8-1.1c-0.1-0.5-0.6-0.8-1.2-0.8c-0.3,0-0.5,0.1-0.7,0.1C20,34,15.4,30,15.4,24.8z
		 M23.1,25.7c0,0.6,0,1.3,0,1.9c-0.1,0-0.1,0.1-0.2,0.1c-0.2-0.3-0.5-0.6-0.7-0.9c-0.3-0.7-0.7-1.1-1.2-0.9
		c-0.6,0.2-0.9,0.8-0.7,1.5c0.3,1.2,1.2,1.9,2.3,2.2c0.4,0.1,0.5,0.3,0.5,0.7c0,0.8,0.3,1.2,0.9,1.3c0.6,0,1-0.4,1-1.3
		c0-0.4,0.1-0.6,0.5-0.7c0.4-0.1,0.8-0.4,1.2-0.6c1.6-1.1,1.6-3.2,0-4.3c-0.4-0.3-0.9-0.4-1.3-0.6c-0.2-0.1-0.4-0.3-0.4-0.4
		c0-0.5,0-1,0-1.6c0.1,0,0.2-0.1,0.2-0.1c0.2,0.3,0.5,0.6,0.7,1c0.3,0.7,0.7,1,1.3,0.8c0.6-0.2,0.8-0.7,0.7-1.4
		c-0.3-1.2-1.1-1.8-2.2-2.2c-0.5-0.2-0.7-0.3-0.7-0.9c0-0.2,0-0.5-0.2-0.6c-0.3-0.2-0.7-0.5-1.1-0.4c-0.5,0-0.8,0.5-0.7,1
		c0.1,0.6-0.2,0.9-0.7,1c-0.2,0-0.4,0.2-0.6,0.3c-1,0.6-1.6,1.4-1.5,2.5c0,1.1,0.7,1.9,1.6,2.4C22.3,25.4,22.7,25.5,23.1,25.7z"/>
	<path class="st1" d="M32.8,35.4c-1,0-1.8,0-2.7,0c-0.7,0-1.1-0.4-1.1-1c0-0.6,0.4-0.9,1.1-0.9c0.9,0,1.7,0,2.7,0c0-0.8,0-1.6,0-2.4
		c0-1,0.3-1.5,1-1.5c0.7,0,0.9,0.5,0.9,1.5c0,0.7,0,1.5,0,2.3c0.9,0,1.8,0,2.6,0c0.8,0,1.2,0.4,1.2,1c0,0.6-0.4,0.9-1.2,0.9
		c-0.8,0-1.7,0-2.6,0c0,0.7,0,1.3,0,1.9c0,0.3,0,0.6,0,0.8c0,0.6-0.5,1.1-1,1.1c-0.5,0-0.9-0.4-0.9-1.1
		C32.8,37.3,32.8,36.4,32.8,35.4z"/>
	<path class="st1" d="M22.9,23.6c-0.2-0.3-0.6-0.5-0.7-0.9c-0.1-0.5,0.4-0.7,0.8-0.9c0,0.6,0,1.1,0,1.6C23,23.6,23,23.6,22.9,23.6z"
		/>
	<path class="st1" d="M25.1,27.6c0-0.5,0-1,0-1.5c0.1,0,0.1-0.1,0.2-0.1c0.2,0.3,0.7,0.5,0.7,0.8c0,0.3-0.4,0.7-0.6,1
		C25.3,27.6,25.2,27.6,25.1,27.6z"/>
</g>
</svg>
