<?xml version="1.0" encoding="utf-8"?>
<!-- Generator: Adobe Illustrator 25.2.0, SVG Export Plug-In . SVG Version: 6.00 Build 0)  -->
<svg version="1.1" id="Layer_1" xmlns="http://www.w3.org/2000/svg" xmlns:xlink="http://www.w3.org/1999/xlink" x="0px" y="0px"
	 viewBox="0 0 48 48" style="enable-background:new 0 0 48 48;" xml:space="preserve">
<style type="text/css">
	.st0{fill:#F4826D;}
	.st1{fill:#FFFFFF;}
</style>
<path class="st0" d="M8,0h32c4.4,0,8,3.6,8,8v32c0,4.4-3.6,8-8,8H8c-4.4,0-8-3.6-8-8V8C0,3.6,3.6,0,8,0z"/>
<g>
	<path class="st1" d="M9,24.2c0.4-1.1,1.1-1.8,2.5-1.8c0-0.3,0-0.5,0-0.7c0-1.6,0-3.3,0-4.9c0-0.8,0.1-0.9,0.8-0.7
		c3.9,1,7.7,2.1,11.6,3.1c0.4,0.1,0.9,0.1,1.3,0c3.9-1,7.7-2,11.6-3.1c0.8-0.2,0.9-0.1,0.9,0.7c0,1.6,0,3.2,0,4.8c0,0.2,0,0.5,0,0.8
		c1.3,0,2.1,0.7,2.4,1.8c0,0.3,0,0.6,0,0.8c-0.4,1.1-1.2,1.7-2.5,1.7c0,2,0,3.9,0,5.9c0,0.6-0.2,0.8-0.7,0.9
		c-1.4,0.3-2.8,0.8-4.2,1.1c-0.5,0.1-0.6,0.3-0.6,0.8c0,1,0,2.1,0,3.1c-5.1,0-10.1,0-15.2,0c0-1.1,0-2.1,0-3.1
		c0-0.5-0.1-0.7-0.6-0.8c-1.4-0.3-2.8-0.8-4.3-1.1c-0.5-0.1-0.7-0.3-0.7-0.8c0-0.8,0-1.6,0-2.4c0-1.2,0-2.3,0-3.5
		c-1.4,0-2.1-0.7-2.5-1.9C9,24.7,9,24.4,9,24.2z M23.9,34.7c0-0.3,0-0.5,0-0.7c0-4.1,0-8.1,0-12.2c0-0.5-0.2-0.7-0.7-0.9
		c-3.1-0.8-6.2-1.6-9.2-2.4c-0.2,0-0.4-0.1-0.6-0.1c0,0.2,0,0.3,0,0.3c0,4.2,0,8.5,0,12.7c0,0.4,0.2,0.5,0.5,0.6
		c1.4,0.4,2.8,0.7,4.3,1.1C20,33.7,21.9,34.2,23.9,34.7z M35.8,18.3c-3.5,0.9-7,1.9-10.5,2.8c0,4.5,0,9,0,13.6
		c3.4-0.9,6.7-1.8,10.1-2.7c0.2,0,0.4-0.4,0.4-0.6c0-1.2,0-2.3,0-3.5C35.8,24.7,35.8,21.6,35.8,18.3z"/>
	<path class="st1" d="M29.2,13.5c0,2.6-2.1,4.7-4.7,4.6c-2.6,0-4.6-2.1-4.6-4.8c0-2.5,2.2-4.6,4.7-4.6C27.2,8.8,29.2,10.9,29.2,13.5
		z"/>
	<path class="st1" d="M22.2,29.7c-2.5-0.7-5-1.3-7.6-2c0-0.5,0-0.9,0-1.5c0.9,0.2,1.8,0.5,2.7,0.7c1.3,0.3,2.6,0.7,4,1
		c0.7,0.2,1,0.5,0.9,1.2C22.3,29.3,22.3,29.5,22.2,29.7z"/>
	<path class="st1" d="M22.3,32.5c-2.5-0.6-4.8-1.3-7.2-1.9c-0.2,0-0.4-0.3-0.4-0.4c-0.1-0.4,0-0.7,0-1.2c0.9,0.2,1.8,0.4,2.6,0.7
		c1.3,0.4,2.7,0.7,4,1.1c1,0.3,1,0.3,1,1.4C22.3,32.2,22.3,32.3,22.3,32.5z"/>
	<path class="st1" d="M14.7,22.2c0-0.5,0-1,0-1.5c1.3,0.3,2.5,0.7,3.8,1c1,0.3,2,0.6,3.1,0.8c0.6,0.1,0.9,0.4,0.8,1.1
		c0,0.2,0,0.4,0,0.7C19.7,23.5,17.2,22.9,14.7,22.2z"/>
	<path class="st1" d="M14.7,23.5c1.8,0.5,3.5,0.9,5.2,1.4c0.6,0.1,1.1,0.3,1.7,0.4c0.6,0.1,0.8,0.3,0.7,0.9c0,0.2,0,0.5,0,0.8
		c-2.6-0.7-5.1-1.3-7.6-2C14.7,24.5,14.7,24,14.7,23.5z"/>
	<path class="st1" d="M31.1,25.9c0-1.5,0-2.9,0-4.3c1.1-0.3,2.1-0.6,3.3-0.9c0,1.5,0,2.8,0,4.3C33.3,25.3,32.3,25.6,31.1,25.9z"/>
	<path class="st1" d="M26.9,32.5c0-0.1-0.1-0.1-0.1-0.2c-0.1-1.3-0.1-1.3,1.1-1.6c2.1-0.6,4.3-1.1,6.4-1.7c0,0.1,0.1,0.1,0.1,0.1
		c0.2,1.4,0.2,1.4-1.2,1.7c-1.9,0.5-3.9,1-5.8,1.6C27.2,32.5,27,32.5,26.9,32.5z"/>
	<path class="st1" d="M26.9,29.8c0-0.1-0.1-0.1-0.1-0.1c-0.1-1.4-0.2-1.4,1.1-1.7c2.1-0.6,4.2-1.1,6.5-1.7c0,0.4,0,0.8,0,1.2
		c0,0.1-0.1,0.4-0.3,0.4C31.7,28.5,29.3,29.2,26.9,29.8z"/>
	<path class="st1" d="M29.9,21.9c0,0.5,0,0.9,0,1.3c0,0.1-0.1,0.3-0.2,0.3c-0.9,0.3-1.8,0.5-2.8,0.8c0-0.1-0.1-0.2-0.1-0.3
		c-0.1-1.2-0.1-1.2,1.1-1.5C28.5,22.3,29.1,22.1,29.9,21.9z"/>
	<path class="st1" d="M29.8,26.2c-1,0.3-1.9,0.5-3,0.8c0-0.5,0-0.8,0-1.2c0-0.1,0.2-0.3,0.3-0.4c0.9-0.3,1.7-0.5,2.7-0.7
		C29.8,25.2,29.8,25.7,29.8,26.2z"/>
</g>
</svg>
