<?xml version="1.0" encoding="utf-8"?>
<!-- Generator: Adobe Illustrator 25.2.0, SVG Export Plug-In . SVG Version: 6.00 Build 0)  -->
<svg version="1.1" id="Layer_1" xmlns="http://www.w3.org/2000/svg" xmlns:xlink="http://www.w3.org/1999/xlink" x="0px" y="0px"
	 viewBox="0 0 48 48" style="enable-background:new 0 0 48 48;" xml:space="preserve">
<style type="text/css">
	.st0{fill:#FAA41F;}
	.st1{fill:#FFFFFF;}
</style>
<path class="st0" d="M8,0h32c4.4,0,8,3.6,8,8v32c0,4.4-3.6,8-8,8H8c-4.4,0-8-3.6-8-8V8C0,3.6,3.6,0,8,0z"/>
<g>
	<path class="st1" d="M32.2,24.7c0.2,0.9,0.3,1.8,0.6,2.6c0.3,1.3,1,2.3,2.2,2.9c0.7,0.3,1,1.1,0.8,1.9c-0.1,0.2-0.3,0.4-0.5,0.5
		s-0.4,0-0.6,0c-7,0-14,0-21,0c-0.4,0-0.9,0.2-1.2-0.4c-0.2-0.5,0.1-1.5,0.5-1.8c0.1-0.1,0.2-0.2,0.4-0.2c1.3-0.5,1.9-1.6,2.2-2.8
		c0.7-2.4,0.7-4.9,0.7-7.4c0-1.9,0.5-3.6,1.7-5.1s2.7-2.4,4.5-2.8c0.4-0.1,0.6-0.2,0.6-0.7c0-0.7,0.5-1.2,1.1-1.2
		c0.7,0,1.1,0.4,1.2,1.2c0,0.5,0.2,0.6,0.6,0.7c0.7,0.2,1.4,0.5,2.3,0.8c-3,2.3-4.1,5-2.5,8.4C26.9,23.9,29.2,25,32.2,24.7z"/>
	<path class="st1" d="M31.2,23.6c-2.8,0-5.2-2.3-5.2-5.1c0-2.9,2.3-5.2,5.2-5.2s5.2,2.3,5.2,5.2C36.4,21.3,34.1,23.6,31.2,23.6z
		 M31.7,20.9c0-1.7,0-3.3,0-5.1c-0.7,0.4-1.3,0.7-2,1c0.1,0.2,0.3,0.4,0.3,0.6c0.3-0.1,0.4-0.2,0.7-0.3c0,1.3,0,2.5,0,3.8
		C31.2,20.9,31.4,20.9,31.7,20.9z"/>
	<path class="st1" d="M19.8,34.1c2.7,0,5.4,0,8,0c-0.1,2.1-1.9,3.7-4,3.7S19.9,36.1,19.8,34.1z"/>
</g>
</svg>
