<?xml version="1.0" encoding="utf-8"?>
<!-- Generator: Adobe Illustrator 25.2.0, SVG Export Plug-In . SVG Version: 6.00 Build 0)  -->
<svg version="1.1" id="Layer_1" xmlns="http://www.w3.org/2000/svg" xmlns:xlink="http://www.w3.org/1999/xlink" x="0px" y="0px"
	 viewBox="0 0 48 48" style="enable-background:new 0 0 48 48;" xml:space="preserve">
<style type="text/css">
	.st0{fill:#F16996;}
	.st1{fill:#FFFFFF;}
</style>
<path class="st0" d="M8,0h32c4.4,0,8,3.6,8,8v32c0,4.4-3.6,8-8,8H8c-4.4,0-8-3.6-8-8V8C0,3.6,3.6,0,8,0z"/>
<g>
	<path class="st1" d="M37.8,14.2c0,5.9,0,11.7,0,17.6c-0.4,1.3-1.2,2.1-2.4,2.6c-0.7,0.3-1.4,0.4-2.1,0.4c-6,0-12,0-18,0
		c-1.1,0-2.2-0.3-3.1-1c-0.9-0.7-1.4-1.6-1.4-2.7c0-5.4,0-10.8,0-16.2c0-1,0.4-1.8,1.1-2.4c1-0.8,2.1-1.2,3.4-1.2c6,0,12.1,0,18.1,0
		c0.3,0,0.6,0,0.8,0.1c1.2,0.2,2.3,0.7,3,1.7C37.5,13.4,37.6,13.8,37.8,14.2z M24.3,33c2.1,0,4.1,0,6.2,0c1,0,2,0,3,0
		c1.3,0,2.1-0.8,2.1-2.1c0-4.1,0-8.2,0-12.3c0-1.3,0-2.5,0-3.8c0-0.6-0.2-1-0.7-1.4c-0.5-0.4-1-0.5-1.6-0.5c-6,0-11.9,0-17.9,0
		c-0.2,0-0.4,0-0.7,0.1c-1.1,0.2-1.7,0.9-1.7,2c0,5.4,0,10.7,0,16.1c0,0.7,0.3,1.2,0.9,1.5c0.5,0.3,1,0.4,1.5,0.4
		C18.4,33,21.3,33,24.3,33z"/>
	<path class="st1" d="M18.8,22.9c-0.9-0.3-1.6-0.9-2-1.8c-0.2-0.6-0.3-1.3-0.1-1.9c0.4-1.3,1.6-2.2,2.9-2.1c1.3,0,2.5,0.9,2.9,2.2
		c0.2,0.8,0.1,1.6-0.3,2.3c-0.4,0.7-1,1.2-1.8,1.5c1.2,0.3,2.1,0.8,2.8,1.8c0.6,0.8,0.9,1.7,0.9,2.7c0,0.5-0.3,0.8-0.8,0.9
		c-0.5,0-0.8-0.3-0.8-0.8c-0.1-1.4-0.7-2.4-2.1-2.8c-1.9-0.6-3.8,0.7-3.9,2.7c0,0.1,0,0.2,0,0.3c-0.1,0.4-0.4,0.7-0.9,0.7
		c-0.4,0-0.7-0.4-0.7-0.8c0-1.9,1.3-3.7,3.1-4.3C18.3,23,18.6,22.9,18.8,22.9z M21.1,20c0-0.8-0.6-1.4-1.4-1.4
		c-0.8,0-1.4,0.6-1.4,1.4c0,0.8,0.6,1.4,1.4,1.4C20.4,21.4,21.1,20.8,21.1,20z"/>
	<path class="st1" d="M29.7,21.9c1.2,0,2.3,0,3.5,0c0.6,0,1,0.6,0.7,1.1c-0.2,0.3-0.4,0.5-0.8,0.5c-1.3,0-2.6,0-3.9,0c-1,0-2,0-3,0
		c-0.6,0-1-0.6-0.8-1.1c0.1-0.3,0.4-0.5,0.8-0.5C27.4,21.9,28.5,21.9,29.7,21.9z"/>
	<path class="st1" d="M29.7,26.8c-1.2,0-2.3,0-3.5,0c-0.1,0-0.3,0-0.4,0c-0.3-0.1-0.6-0.5-0.5-0.8c0-0.4,0.3-0.7,0.7-0.7
		c0.1,0,0.2,0,0.3,0c2.3,0,4.5,0,6.8,0c0.1,0,0.2,0,0.3,0c0.4,0,0.7,0.4,0.7,0.8c0,0.4-0.3,0.8-0.7,0.8c-0.5,0-1,0-1.5,0
		C31.2,26.8,30.4,26.8,29.7,26.8z"/>
	<path class="st1" d="M29.7,20.2c-1.1,0-2.2,0-3.3,0c-0.5,0-0.9-0.3-0.9-0.8c0-0.5,0.4-0.8,0.9-0.8c2.2,0,4.5,0,6.7,0
		c0.5,0,0.9,0.3,0.9,0.8c0,0.5-0.4,0.8-0.9,0.8C31.9,20.2,30.8,20.2,29.7,20.2z"/>
</g>
</svg>
