<?xml version="1.0" encoding="utf-8"?>
<!-- Generator: Adobe Illustrator 25.2.0, SVG Export Plug-In . SVG Version: 6.00 Build 0)  -->
<svg version="1.1" id="Layer_1" xmlns="http://www.w3.org/2000/svg" xmlns:xlink="http://www.w3.org/1999/xlink" x="0px" y="0px"
	 viewBox="0 0 48 48" style="enable-background:new 0 0 48 48;" xml:space="preserve">
<style type="text/css">
	.st0{fill:#8D8FBD;}
	.st1{fill:#FFFFFF;}
</style>
<path class="st0" d="M8,0h32c4.4,0,8,3.6,8,8v32c0,4.4-3.6,8-8,8H8c-4.4,0-8-3.6-8-8V8C0,3.6,3.6,0,8,0z"/>
<g>
	<path class="st1" d="M15.5,33.6c0.9-0.1,1.7-0.2,2.3,0.8c0.2,0.3,0.9,0.5,1.4,0.5c4.3,0,8.5,0,12.8,0c1.4,0,2.2-0.8,2.2-2.2
		c0-5.5,0-10.9,0-16.4c0-1.6-0.6-2-2.4-2.3c0-0.5,0-1,0-1.6c1.9-0.3,3.7,0.9,4,2.9c0.1,0.3,0.1,0.6,0.1,0.9c0,5.5,0,11.1,0,16.6
		c0,2.4-1.5,3.8-3.9,3.8c-4.3,0-8.6,0-12.9,0C17.3,36.6,15.9,35.5,15.5,33.6z"/>
	<path class="st1" d="M9.6,21.5c0-2,0.4-2.4,2.3-2.8c1.3-0.3,2.5-0.8,3.7-1.3c0.8-0.4,1.5-0.6,2.3,0c1.3,0.9,2.7,1.3,4.2,1.5
		c1.1,0.1,1.8,0.8,1.8,1.8c-0.1,4.6-1.7,8.5-5.7,11.1c-0.9,0.6-1.7,0.6-2.7,0.1C11.3,29.6,9.7,26,9.6,21.5z M11.1,20.4
		c0,1,0,1.9,0.1,2.7c0.4,3.1,1.8,5.6,4.6,7.2c0.6,0.4,1.1,0.4,1.7,0c3.3-2.2,4.6-5.5,4.8-9.3c0-0.5-0.2-0.6-0.7-0.7
		c-1.6-0.1-3.1-0.6-4.4-1.5c-0.2-0.1-0.6-0.2-0.8,0C14.8,19.7,13.1,20.2,11.1,20.4z"/>
	<path class="st1" d="M23.3,11.4c0.5-1.9,1.4-2.8,2.9-2.8c1.5,0,2.4,0.9,2.9,2.7c1.9,0.3,2.4,1.1,2,3c-0.2,0.7-0.7,1-1.3,1
		c-2.3,0-4.7,0-7,0c-0.8,0-1.3-0.5-1.4-1.4c0-0.2,0-0.3,0-0.5C21.3,11.8,21.6,11.5,23.3,11.4z M27.6,11.4c-0.1-1-0.6-1.5-1.4-1.5
		c-0.8,0-1.3,0.5-1.3,1.5C25.7,11.4,26.6,11.4,27.6,11.4z"/>
	<path class="st1" d="M20.2,31.7c0.7-1.1,1.5-1.5,2.6-1.4c2.6,0.1,5.3,0,8,0c0.3,0,0.8,0.1,1,0.4c0.4,0.5-0.1,1-0.9,1
		c-2.5,0-4.9,0-7.4,0C22.5,31.7,21.4,31.7,20.2,31.7z"/>
	<path class="st1" d="M23.2,27.9c0.2-1.2,0.7-1.5,1.8-1.4c2,0.1,3.9,0,5.9,0.1c0.4,0,1,0.4,1,0.6c0.1,0.7-0.5,0.7-1,0.7
		C28.3,27.9,25.8,27.9,23.2,27.9z"/>
	<path class="st1" d="M24.5,24.1c0-1.4,0-1.4,1.2-1.4c1.7,0,3.3,0,5,0c0.5,0,1.1,0,1.1,0.7c0,0.7-0.5,0.7-1.1,0.7
		C28.8,24.1,26.7,24.1,24.5,24.1z"/>
	<path class="st1" d="M24.2,18.8c2.4,0,4.6,0,6.8,0c0.3,0,0.6,0.4,0.9,0.7c-0.3,0.2-0.6,0.6-0.9,0.6c-1.9,0.1-3.7,0-5.6,0
		C24.4,20.3,24.7,19.4,24.2,18.8z"/>
	<path class="st1" d="M15.5,15.7c0.3-2.2,1.8-3.5,4-3.3c0,0.5,0,1,0,1.6c-1.2,0-2.1,0.4-2.4,1.6C16.6,15.7,16.1,15.7,15.5,15.7z"/>
	<path class="st1" d="M15.5,25.1c1.5-1,2.8-2.4,4.5-3.1c0.1,0.1,0.1,0.1,0.2,0.2c-0.2,0.3-0.3,0.6-0.5,0.8c-1.1,1.2-2.2,2.5-3.4,3.7
		c-0.8,0.8-1.3,0.7-1.9-0.2c-0.5-0.7-0.8-1.6-1.2-2.3c0.1-0.1,0.3-0.2,0.4-0.3C14.2,24.2,14.8,24.7,15.5,25.1z"/>
</g>
</svg>
