<?xml version="1.0" encoding="utf-8"?>
<!-- Generator: Adobe Illustrator 25.2.0, SVG Export Plug-In . SVG Version: 6.00 Build 0)  -->
<svg version="1.1" id="Layer_1" xmlns="http://www.w3.org/2000/svg" xmlns:xlink="http://www.w3.org/1999/xlink" x="0px" y="0px"
	 viewBox="0 0 48 48" style="enable-background:new 0 0 48 48;" xml:space="preserve">
<style type="text/css">
	.st0{fill:#0FD2D2;}
	.st1{fill:#FFFFFF;}
</style>
<path class="st0" d="M8,0h32c4.4,0,8,3.6,8,8v32c0,4.4-3.6,8-8,8H8c-4.4,0-8-3.6-8-8V8C0,3.6,3.6,0,8,0z"/>
<g>
	<path class="st1" d="M28.1,38c-2.7,0-5.5,0-8.2,0c0-5.4,0-10.8,0-16.2c2.7,0,5.4,0,8.2,0C28.1,27.2,28.1,32.6,28.1,38z M25,27
		c-0.3,0-0.5,0-0.8,0c-0.2,0-0.3,0-0.5,0.1c-0.5,0.3-1,0.7-1.5,1c-0.1,0-0.1,0.1-0.2,0.1c0.2,0.3,0.4,0.6,0.6,0.9
		c0.4-0.3,0.8-0.5,1.2-0.8c0,1.5,0,2.9,0,4.4c0.4,0,0.8,0,1.2,0C25,30.9,25,29,25,27z"/>
	<path class="st1" d="M16.6,26c0,4,0,8,0,12c-2.7,0-5.4,0-8.2,0c0-4,0-8,0-12C11.1,26,13.8,26,16.6,26z M10.7,30.3
		c0.2,0,0.3,0,0.4-0.1c0.4,0,0.8-0.1,1.2-0.1c0.4,0,0.7,0.2,0.7,0.7c0,0.4-0.1,0.7-0.4,0.9c-0.6,0.7-1.3,1.3-1.9,2
		c-0.1,0.1-0.1,0.1-0.1,0.2c0,0.3,0,0.6,0,1c1.3,0,2.5,0,3.7,0c0-0.3,0-0.6,0-0.8c0-0.2,0-0.2-0.2-0.2c-0.6,0-1.2,0-1.9,0
		c-0.1,0-0.2,0-0.3,0c0.1-0.1,0.2-0.1,0.2-0.2c0.5-0.5,1-0.9,1.5-1.4c0.4-0.4,0.6-0.9,0.6-1.5c0-0.9-0.4-1.5-1.2-1.6
		c-0.8-0.2-1.6-0.1-2.3,0.2c0,0-0.1,0.1-0.1,0.1C10.7,29.7,10.7,30,10.7,30.3z"/>
	<path class="st1" d="M31.4,28.5c2.7,0,5.4,0,8.2,0c0,3.2,0,6.3,0,9.5c-2.7,0-5.4,0-8.2,0C31.4,34.8,31.4,31.7,31.4,28.5z
		 M33.7,31.5c0.3,0,0.5-0.1,0.8-0.1c0.4,0,0.8,0,1.1,0c0.3,0,0.4,0.2,0.4,0.5c0,0.4-0.3,0.8-0.8,0.8c-0.4,0-0.7,0-1.1,0
		c0,0.4,0,0.7,0,1c0.4,0,0.7,0,1.1,0c0.1,0,0.3,0,0.4,0c0.3,0.1,0.5,0.3,0.5,0.7c0,0.4-0.2,0.6-0.5,0.7c-0.3,0-0.6,0-1,0
		c-0.3,0-0.7-0.1-1-0.1c0,0.3,0,0.6-0.1,0.8c0,0,0.1,0.1,0.1,0.1c0.7,0.2,1.4,0.3,2.1,0.3c1-0.1,1.5-0.6,1.6-1.5
		c0.1-0.6-0.1-1.2-0.7-1.5c0,0,0,0,0-0.1c0.6-0.4,0.7-1,0.6-1.6c-0.1-0.6-0.4-1-1-1.2c-0.9-0.2-1.7-0.1-2.5,0.2
		c-0.1,0-0.1,0.1-0.1,0.2C33.7,31,33.7,31.2,33.7,31.5z"/>
	<path class="st1" d="M17.6,10.3c-0.2,0.4-0.3,0.9-0.3,1.3c0.1-0.3,0.1-0.6,0.4-0.7c0.3-0.2,0.6-0.1,0.9,0c-0.2,0.2-0.3,0.5-0.5,0.7
		c-0.2,0.2-0.4,0.3-0.7,0.1c0,0-0.1,0-0.1,0.1c-0.1,0.5,0,0.9,0.1,1.4c0-0.3,0-0.6,0.2-0.8c0.2-0.3,0.5-0.2,0.8-0.3
		c-0.1,0.4-0.1,0.8-0.4,1c-0.1,0.1-0.3,0.2-0.5,0.1c-0.1,0-0.2,0-0.2,0.1c0.1,0.4,0.3,0.9,0.4,1.3c0,0,0,0,0.1,0
		c-0.4-0.7-0.1-1.2,0.6-1.4c0,0.4,0.1,0.8-0.1,1.2c-0.1,0.1-0.2,0.2-0.4,0.2c0,0-0.1,0.1-0.1,0.1c0.2,0.4,0.5,0.9,0.9,1.2
		c-0.1-0.2-0.2-0.3-0.3-0.5c-0.1-0.2,0-0.4,0.1-0.6c0.1-0.2,0.3-0.3,0.5-0.4c0.2,0.4,0.3,0.7,0.2,1.2c-0.1,0.2-0.2,0.3-0.3,0.4
		c-0.1,0-0.1,0.1-0.1,0.2c0.4,0.3,0.7,0.7,1.1,1c0,0,0-0.1,0.1-0.1c-0.1,0-0.1-0.1-0.2-0.1c-0.4-0.2-0.5-0.6-0.4-1
		c0.1-0.2,0.2-0.3,0.3-0.5c0.2,0.3,0.5,0.5,0.6,0.9c0.1,0.3,0,0.5-0.2,0.7c-0.1,0.1-0.1,0.2,0,0.2c0.5,0.2,0.9,0.5,1.4,0.7
		c0,0,0,0,0.1,0c-0.3-0.2-0.6-0.3-0.8-0.6c-0.1-0.4,0-0.7,0.2-1c0.3,0.3,0.5,0.5,0.7,0.7c0.2,0.3,0.2,0.5-0.1,0.9
		c-0.1,0.1,0,0.2,0.1,0.2c0.4,0.2,0.8,0.3,1.2,0.5c0.1,0,0.2,0.1,0.3,0.1c-0.3-0.2-0.6-0.3-0.8-0.6c-0.2-0.3-0.1-0.7,0-1
		c0.5,0.1,1.1,0.7,1.2,1.2c0,0.2,0,0.3-0.2,0.4c-0.1,0.1-0.1,0.2,0,0.2c0.2,0.1,0.4,0.3,0.6,0.4c0.2-0.1,0.4-0.3,0.6-0.4
		c0,0,0-0.2,0-0.2c-0.3-0.2-0.3-0.5-0.1-0.7c0.1-0.2,0.3-0.4,0.5-0.6c0.2-0.1,0.3-0.2,0.5-0.3c0.1,0.4,0.2,0.7,0,1.1
		c-0.2,0.3-0.5,0.4-0.8,0.6c0,0,0,0,0,0c0,0,0.1,0,0.1,0c0.5-0.2,0.9-0.4,1.4-0.6c0.2-0.1,0.2-0.1,0.1-0.3c-0.2-0.2-0.2-0.5,0-0.7
		c0.2-0.3,0.5-0.5,0.8-0.8c0.1,0.3,0.3,0.6,0.2,1c-0.1,0.3-0.5,0.5-0.8,0.6c0,0,0,0,0,0.1c0,0,0.1,0,0.1,0c0.4-0.2,0.8-0.4,1.3-0.7
		c0.2-0.1,0.2-0.1,0-0.3c-0.1-0.1-0.2-0.2-0.2-0.3c-0.1-0.3,0.1-0.5,0.2-0.8c0.1-0.1,0.2-0.3,0.3-0.4c0.2,0.3,0.4,0.5,0.4,0.9
		c0,0.4-0.3,0.5-0.6,0.7c0,0,0.1,0,0.1,0c0.3-0.3,0.7-0.6,1-0.9c0.1-0.1,0.1-0.2-0.1-0.2c-0.2-0.1-0.4-0.3-0.3-0.6
		c0-0.3,0.1-0.6,0.2-0.9c0.3,0.2,0.6,0.4,0.6,0.7c0.1,0.4-0.1,0.6-0.3,0.8c0,0,0,0,0,0c0,0,0.1-0.1,0.1-0.1c0.2-0.3,0.5-0.7,0.7-1
		c0.1-0.1,0.1-0.2-0.1-0.2c-0.3,0-0.4-0.2-0.5-0.4c-0.1-0.2,0-0.4-0.1-0.6c0-0.1,0-0.2,0-0.4c0.3,0.1,0.6,0.2,0.7,0.5
		c0.1,0.3,0,0.6-0.1,0.9c0,0,0.1,0,0.1-0.1c0.1-0.4,0.3-0.8,0.4-1.2c0-0.1,0-0.2-0.2-0.2c-0.2,0.1-0.5-0.1-0.6-0.3
		c-0.1-0.3-0.2-0.5-0.3-0.9c0.4,0,0.7,0,0.9,0.3c0.2,0.2,0.1,0.5,0.1,0.8c0,0,0,0,0.1,0c0,0,0-0.1,0-0.1c0-0.4,0-0.8,0-1.3
		c0-0.1-0.1-0.2-0.2-0.1c-0.2,0.1-0.4,0-0.6-0.1c-0.2-0.2-0.3-0.5-0.5-0.7c0.3-0.1,0.6-0.2,0.9,0c0.3,0.2,0.3,0.5,0.3,0.7
		c0,0,0.1,0,0.1,0c-0.1-0.3-0.1-0.6-0.2-0.8c0,0,0,0,0,0c0.1,0.3,0.1,0.6,0.2,0.8c0,0,0,0,0.1,0c0-0.1,0-0.1,0-0.2
		c-0.1-0.3-0.1-0.7,0.2-0.9c0.1-0.1,0.3-0.2,0.5-0.4c0.1,0.5,0.2,0.9,0,1.3c-0.1,0.2-0.3,0.3-0.6,0.3c0,0-0.1,0.1-0.1,0.1
		c0,0.5,0,0.9,0,1.4c0-0.1,0-0.1,0-0.2c0-0.3,0.1-0.7,0.4-0.9c0.2-0.1,0.4-0.2,0.6-0.2c-0.1,0.4,0,0.8-0.3,1.2
		c-0.2,0.3-0.4,0.4-0.8,0.2c0,0-0.1,0-0.2,0.1c-0.1,0.4-0.3,0.9-0.4,1.4c0,0,0,0,0,0.1c0-0.1,0.1-0.2,0.1-0.2
		c0.1-0.4,0.3-0.6,0.7-0.7c0.2-0.1,0.4,0,0.6,0c0,0.5-0.5,1.1-0.9,1.2c-0.2,0-0.3,0-0.4-0.2c-0.1-0.1-0.1-0.1-0.2,0
		c-0.1,0.2-0.2,0.4-0.4,0.7c-0.1,0.2-0.3,0.4-0.4,0.6c0,0,0,0,0,0c0,0,0.1-0.1,0.1-0.1c0.2-0.3,0.5-0.5,0.8-0.5
		c0.2,0,0.5,0.1,0.8,0.1c-0.3,0.4-0.6,0.9-1.1,1c-0.3,0.1-0.4,0-0.6-0.3c0,0-0.1-0.1-0.2,0c-0.4,0.3-0.8,0.7-1.2,1.1
		c0.1,0,0.1-0.1,0.2-0.1c0.3-0.2,0.7-0.4,1.1-0.3c0.2,0.1,0.4,0.2,0.6,0.3c0,0,0,0,0,0c-0.4,0.3-0.7,0.6-1.2,0.6
		c-0.4,0-0.6-0.1-0.7-0.5c0,0-0.1-0.1-0.2-0.1c-0.5,0.2-0.9,0.5-1.4,0.8c0.1,0,0.1,0,0.2-0.1c0.3-0.2,0.6-0.2,1-0.1
		c0.1,0.1,0.3,0.2,0.4,0.3c0.1,0.1,0.2,0.2,0.3,0.3c-0.4,0.2-0.9,0.4-1.4,0.3c-0.2-0.1-0.5-0.2-0.5-0.6c0,0-0.1-0.1-0.1-0.1
		c-0.5,0.2-1,0.4-1.5,0.7c0.3-0.1,0.6-0.3,1-0.1c0.4,0.1,0.5,0.4,0.7,0.7c-0.4,0.3-1.1,0.3-1.5,0c-0.1-0.1-0.2-0.3-0.2-0.4
		c0-0.2-0.1-0.2-0.2-0.1c-0.2,0.1-0.3,0.2-0.5,0.4c0.1,0.2,0.2,0.3,0.3,0.5c-0.3,0.1-0.3-0.3-0.5-0.3c-0.1,0-0.1,0.4-0.4,0.3
		c0.1-0.2,0.2-0.3,0.3-0.5c-0.2-0.1-0.4-0.3-0.5-0.4c-0.1-0.1-0.2,0-0.2,0.1c-0.1,0.3-0.2,0.5-0.6,0.6c-0.4,0.1-0.8-0.1-1.2-0.1
		c0.2-0.3,0.4-0.6,0.7-0.8c0.4-0.1,0.7,0.1,1,0.2c0,0,0-0.1,0-0.1c-0.1,0-0.1-0.1-0.2-0.1c-0.4-0.2-0.8-0.4-1.2-0.5
		c-0.2-0.1-0.2,0-0.2,0.2c0,0.3-0.2,0.5-0.5,0.5c-0.5,0.1-0.9-0.1-1.3-0.3c0.2-0.2,0.4-0.4,0.6-0.5c0.4-0.2,0.7-0.1,1.1,0.1
		c0.1,0,0.1,0,0.2,0.1c0,0,0,0,0-0.1c-0.1,0-0.2-0.1-0.2-0.1c-0.4-0.2-0.7-0.4-1.1-0.6c-0.1-0.1-0.2-0.1-0.2,0.1
		c0,0.2-0.2,0.4-0.5,0.4c-0.2,0-0.5-0.1-0.7-0.2c-0.2-0.1-0.4-0.3-0.6-0.4c0.3-0.2,0.6-0.4,0.9-0.4c0.4,0,0.6,0.2,0.9,0.4
		c0-0.1,0-0.1,0-0.1c-0.4-0.3-0.8-0.7-1.2-1c0,0-0.1,0-0.2,0c-0.2,0.3-0.4,0.4-0.8,0.2c-0.2-0.1-0.4-0.3-0.6-0.4
		c-0.1-0.1-0.3-0.3-0.4-0.5c0.7-0.4,1.3-0.1,1.7,0.5c0,0,0,0,0-0.1c0,0,0-0.1,0-0.1c-0.2-0.4-0.5-0.7-0.7-1.1
		c-0.1-0.1-0.1-0.2-0.3,0c-0.1,0.2-0.4,0.2-0.7,0c-0.2-0.1-0.3-0.3-0.4-0.5c-0.1-0.2-0.2-0.4-0.2-0.6c0.8-0.1,1.2,0.2,1.4,0.9
		c0,0,0,0,0,0c0,0,0-0.1,0-0.1c-0.1-0.4-0.3-0.8-0.4-1.2c0-0.1-0.1-0.2-0.2-0.1c-0.2,0.1-0.5,0.1-0.6-0.1c-0.1-0.2-0.2-0.4-0.3-0.6
		c-0.1-0.2-0.1-0.4-0.1-0.6c0.3,0.1,0.7,0.1,0.8,0.4c0.1,0.3,0.2,0.6,0.3,0.9c0-0.1,0-0.1,0-0.2c0-0.4,0-0.8,0-1.2
		c0-0.1,0-0.2-0.2-0.2c-0.3,0.1-0.5,0-0.6-0.3c-0.2-0.4,0-0.8,0-1.2c0.3,0.2,0.6,0.3,0.7,0.6c0.1,0.3,0,0.6,0.1,0.9
		c0-0.1,0.1-0.3,0.1-0.4c0.1-0.2,0.1-0.5,0.2-0.7C17.6,10.4,17.6,10.3,17.6,10.3L17.6,10.3z"/>
	<path class="st1" d="M27.7,10.7c-0.4,0.4-0.8,0.8-1.2,1.3c-0.2,0.2-0.3,0.3-0.5,0.5c-0.1,0.1-0.1,0.2-0.1,0.2
		c0.1,0.8,0.3,1.6,0.4,2.4c-0.1,0-0.1-0.1-0.2-0.1c-0.7-0.3-1.3-0.7-2-1C24,14,24,14,23.8,14c-0.7,0.3-1.3,0.7-2,1
		c-0.1,0-0.1,0.1-0.2,0.1c0.1-0.6,0.2-1.2,0.3-1.8c0-0.2,0.1-0.4,0.1-0.7c0-0.1,0-0.2-0.1-0.3c-0.5-0.5-1.1-1-1.6-1.5
		c0,0-0.1-0.1-0.2-0.1c0,0,0,0,0-0.1c0.3,0,0.6-0.1,1-0.1c0.5-0.1,1-0.1,1.5-0.2c0.1,0,0.2-0.1,0.2-0.2C23.3,9.5,23.6,8.7,24,8
		c0,0.1,0.1,0.1,0.1,0.2c0.3,0.7,0.7,1.3,1,2c0.1,0.1,0.1,0.2,0.3,0.2C26.1,10.5,26.9,10.6,27.7,10.7C27.7,10.7,27.7,10.7,27.7,10.7
		z"/>
	<path class="st1" d="M28.9,9.8c0.2-0.1,0.3-0.2,0.5-0.2c0.3-0.1,0.7,0.1,0.8,0.5c0,0.1,0,0.2,0.2,0.1c0.1-0.1,0.2-0.1,0.1-0.2
		c-0.2-0.3-0.2-0.6-0.1-0.9c0.1-0.2,0.2-0.3,0.4-0.5c0.2,0.4,0.4,0.7,0.3,1.2c0,0.3-0.2,0.4-0.5,0.4c-0.1,0-0.1,0.1-0.2,0.1
		c0,0-0.1,0-0.2,0c-0.2,0.2-0.4,0.2-0.7,0C29.3,10.2,29.1,10,28.9,9.8z"/>
	<path class="st1" d="M17.6,10.3c-0.1-0.1-0.1-0.2-0.3-0.2c-0.2,0-0.3-0.1-0.4-0.3c0-0.2,0-0.4,0-0.6c0.1-0.2,0.2-0.4,0.3-0.7
		c0.6,0.5,0.6,0.8,0.3,1.4c0,0,0,0.1,0,0.2c0.1,0.1,0.2,0.1,0.2-0.1c0.1-0.3,0.3-0.5,0.7-0.5c0.2,0,0.4,0.1,0.6,0.2
		c-0.2,0.2-0.4,0.4-0.7,0.6c-0.2,0.2-0.4,0.1-0.7,0C17.8,10.3,17.7,10.3,17.6,10.3C17.6,10.3,17.6,10.3,17.6,10.3z"/>
	<path class="st1" d="M28.1,8.9c0.6-0.6,1-0.5,1.4,0.1c0.1,0,0.1-0.1,0.2-0.2c-0.5-0.5-0.6-0.9-0.1-1.5c0.4,0.4,0.6,0.8,0.5,1.2
		c0,0.2-0.1,0.2-0.3,0.3c-0.1,0.1-0.3,0.1-0.4,0.3c-0.2,0.2-0.4,0.3-0.6,0.2C28.7,9.2,28.4,9,28.1,8.9z"/>
	<path class="st1" d="M18.3,8.8c0.1,0.2,0.2,0.2,0.3,0c0.3-0.4,0.7-0.4,1-0.1c0.1,0.1,0.1,0.1,0.2,0.2c-0.3,0.1-0.5,0.3-0.7,0.4
		c-0.3,0.1-0.4,0-0.6-0.2c-0.1-0.1-0.2-0.2-0.3-0.2c-0.2-0.1-0.3-0.2-0.3-0.5c0-0.1,0-0.3,0.1-0.4c0.1-0.2,0.3-0.5,0.5-0.7
		C18.8,7.8,18.8,8.3,18.3,8.8z"/>
	<path class="st1" d="M27.7,7.1c0.4,0.1,0.7,0.1,1,0.3c0.2,0.1,0.3,0.3,0.3,0.5c0,0.2-0.1,0.2-0.2,0.2c-0.4-0.1-0.6-0.3-0.8-0.6
		C27.8,7.4,27.8,7.2,27.7,7.1z"/>
	<path class="st1" d="M20.5,7.4C20.2,7.6,20,7.8,19.7,8c-0.1,0.1-0.3,0.1-0.4,0.1c-0.2,0-0.3-0.1-0.2-0.3c0.1-0.3,0.6-0.6,0.9-0.6
		C20.2,7.3,20.3,7.3,20.5,7.4C20.4,7.3,20.4,7.4,20.5,7.4z"/>
</g>
</svg>
