<?xml version="1.0" encoding="utf-8"?>
<!-- Generator: Adobe Illustrator 25.2.0, SVG Export Plug-In . SVG Version: 6.00 Build 0)  -->
<svg version="1.1" id="Layer_1" xmlns="http://www.w3.org/2000/svg" xmlns:xlink="http://www.w3.org/1999/xlink" x="0px" y="0px"
	 viewBox="0 0 48 48" style="enable-background:new 0 0 48 48;" xml:space="preserve">
<style type="text/css">
	.st0{fill:#27B99A;}
	.st1{fill:#FFFFFF;}
</style>
<path class="st0" d="M8,0h32c4.4,0,8,3.6,8,8v32c0,4.4-3.6,8-8,8H8c-4.4,0-8-3.6-8-8V8C0,3.6,3.6,0,8,0z"/>
<g>
	<path class="st1" d="M14.4,16.8c3.7,0,6.7,3,6.7,6.7c0,3.7-3,6.7-6.7,6.7c-3.7,0-6.7-3-6.7-6.7C7.7,19.7,10.7,16.7,14.4,16.8z
		 M14.1,19.5c-0.4,0.1-0.7,0.2-1,0.3c-0.8,0.3-1.3,0.9-1.3,1.8c0,0.9,0.4,1.5,1.2,1.8c0.4,0.2,0.8,0.3,1.2,0.4
		c0.4,0.2,0.9,0.3,1.3,0.5c0.6,0.4,0.5,1.2-0.2,1.4C15,26,14.6,26.1,14.2,26c-0.8-0.2-1.5-0.6-2.4-0.9c-0.1,0.2-0.3,0.6-0.5,0.9
		c0.8,0.7,1.7,1.1,2.7,1.2c0,0.5,0,1,0,1.5c0.3,0,0.6,0,0.9,0c0-0.5,0-1,0-1.4c0.4-0.1,0.7-0.2,1.1-0.4c0.8-0.4,1.2-1,1.2-1.8
		c0-0.9-0.4-1.5-1.2-1.9c-0.3-0.2-0.7-0.3-1.1-0.4c-0.4-0.1-0.8-0.3-1.2-0.4c-0.4-0.2-0.7-0.5-0.6-0.9c0.1-0.4,0.4-0.6,0.8-0.6
		c0.2,0,0.5-0.1,0.7,0c0.6,0.2,1.3,0.4,2,0.6c0.1-0.3,0.3-0.7,0.5-1.1c-0.8-0.3-1.5-0.5-2.3-0.8c0-0.4,0-0.8,0-1.3
		c-0.3,0-0.6,0-0.9,0C14.1,18.7,14.1,19.1,14.1,19.5z"/>
	<path class="st1" d="M28.7,34.6c0-1,0-2,0-3c0-1.5,0.9-2.4,2.4-2.4c0.7,0,1.5,0,2.2,0c0-0.2,0-0.4,0-0.6c0-5,0-10,0-15
		c0-0.9-0.2-1.2-1.2-1.2c-5.3,0-10.6,0-15.9,0c-0.9,0-1.1,0.2-1.1,1.1c0,0.8,0,1.6,0,2.4c-0.5,0-0.9,0-1.4,0c0-1.1-0.1-2.2,0-3.3
		c0.1-0.9,1-1.6,2-1.6c5.6,0,11.2,0,16.8,0c1.2,0,2.1,1,2.1,2.3c0,2.6,0,5.2,0,7.8c0,2.9,0,5.8,0,8.7c0,0.3-0.1,0.6-0.3,0.7
		c-1.5,1.7-3,3.5-4.5,5.2c-0.2,0.3-0.4,0.4-0.8,0.4c-4.4,0-8.7,0-13.1,0c-1.5,0-2.4-0.9-2.4-2.4c0-0.8,0-1.7,0-2.5
		c0.5,0,0.9,0,1.5,0c0,0.4,0,0.8,0,1.2c0,0.5,0,0.9,0,1.4c0,0.7,0.3,1,1,1c3,0,6.1,0,9.1,0C26.4,34.6,27.5,34.6,28.7,34.6z"/>
	<path class="st1" d="M18.1,31.7c0-0.6,0-1.2,0-1.8c3.2,0,6.3,0,9.5,0c0,0.6,0,1.1,0,1.8C24.4,31.7,21.3,31.7,18.1,31.7z"/>
	<path class="st1" d="M20.5,28c0.2-0.4,0.5-0.8,0.7-1.2c0.2-0.6,0.5-0.7,1.1-0.7c2.6,0,5.1,0,7.7,0c0.2,0,0.4,0,0.6,0
		c0,0.6,0,1.2,0,1.8C27.1,28,23.8,28,20.5,28z"/>
	<path class="st1" d="M21.8,16.9c1,0.9,2,1.8,3.1,2.7c1.4-1,2.8-2,4.3-3c-0.2-0.3-0.4-0.6-0.6-0.9c1.1-0.1,2.1-0.2,3.3-0.3
		c-0.5,1-0.9,2-1.4,3c-0.2-0.3-0.4-0.6-0.7-0.9c-1.7,1.2-3.3,2.3-5,3.5c-1-0.9-2-1.8-3-2.7c-0.4,0.3-0.8,0.5-1.2,0.8
		c-0.2-0.3-0.4-0.5-0.7-0.8C20.5,17.8,21.1,17.3,21.8,16.9z"/>
	<path class="st1" d="M21.9,24.3c0-0.6,0-1.2,0-1.8c2.8,0,5.7,0,8.5,0c0,0.6,0,1.1,0,1.8C27.6,24.3,24.8,24.3,21.9,24.3z"/>
</g>
</svg>
