<?xml version="1.0" encoding="utf-8"?>
<!-- Generator: Adobe Illustrator 25.2.0, SVG Export Plug-In . SVG Version: 6.00 Build 0)  -->
<svg version="1.1" id="Layer_1" xmlns="http://www.w3.org/2000/svg" xmlns:xlink="http://www.w3.org/1999/xlink" x="0px" y="0px"
	 viewBox="0 0 48 48" style="enable-background:new 0 0 48 48;" xml:space="preserve">
<style type="text/css">
	.st0{fill:#A1BA65;}
	.st1{fill:#FFFFFF;}
</style>
<path class="st0" d="M8,0h32c4.4,0,8,3.6,8,8v32c0,4.4-3.6,8-8,8H8c-4.4,0-8-3.6-8-8V8C0,3.6,3.6,0,8,0z"/>
<g>
	<path class="st1" d="M12.8,16.4c0.3-1,1-1.4,2-1.4c0.5,0,1,0,1.5,0c0.4,0,0.7,0.1,0.7,0.6c0,0.4-0.3,0.6-0.7,0.6
		c-0.6,0-1.1,0-1.7,0c-0.4,0-0.7,0.2-0.7,0.6c0,1.3,0,2.7,0,4.1c6.5,0,12.9,0,19.5,0c0-1.4,0-2.8,0-4.3c0-0.2-0.4-0.4-0.6-0.4
		c-0.5-0.1-1.1,0-1.6,0c-0.4,0-0.7-0.1-0.7-0.6c0-0.4,0.3-0.6,0.7-0.6c0.6,0,1.2,0,1.8,0c0.8,0,1.5,0.6,1.5,1.4c0,2.3,0,4.6,0,6.9
		c-0.4-0.1-0.7-0.2-1.1-0.3c0-0.3,0-0.7-0.1-1c-6.5,0-12.9,0-19.4,0c0,0.2,0,0.4,0,0.5c0,3.4,0,6.7,0,10.1c0,0.8,0.1,0.9,0.9,0.9
		c2.7,0,5.5,0,8.2,0c0.2,0,0.4,0,0.6,0c0.1,0.4,0.2,0.7,0.4,1.1c-0.3,0-0.5,0-0.7,0c-2.8,0-5.7,0-8.5,0c-1,0-1.7-0.3-2-1.3
		C12.8,27.7,12.8,22.1,12.8,16.4z"/>
	<path class="st1" d="M38.2,31.9c-0.1,0.5-0.2,0.9-0.3,1.4c-0.9,2.9-3.8,4.8-6.8,4.4c-3-0.3-5.4-2.7-5.8-5.6c-0.5-4,2.5-7.5,6.6-7.4
		c3.1,0,5.8,2.4,6.3,5.4c0,0.1,0.1,0.3,0.1,0.4C38.2,31,38.2,31.5,38.2,31.9z M31.6,36.7c3,0,5.4-2.4,5.4-5.4c0-3-2.4-5.4-5.4-5.4
		c-3,0-5.4,2.4-5.4,5.4C26.3,34.2,28.7,36.7,31.6,36.7z"/>
	<path class="st1" d="M29.2,15.6c0,0.6,0,1.1,0,1.7c0,0.6-0.4,0.9-0.9,0.9c-0.6,0-1.1-0.3-1.1-0.9c0-1.2,0-2.4,0-3.6
		c0-0.5,0.4-0.9,1-0.9c0.6,0,1,0.3,1,0.9C29.2,14.4,29.2,15,29.2,15.6z"/>
	<path class="st1" d="M18,15.6c0-0.6,0-1.2,0-1.7c0-0.6,0.4-0.9,1-0.9c0.6,0,1,0.3,1,0.9c0,1.2,0,2.4,0,3.6c0,0.6-0.4,0.9-1,0.8
		c-0.6,0-0.9-0.3-1-0.9C18,16.8,18,16.2,18,15.6z"/>
	<path class="st1" d="M23.6,15.1c0.6,0,1.2,0,1.7,0c0.4,0,0.7,0.2,0.7,0.6c0,0.4-0.3,0.6-0.7,0.6c-1.2,0-2.4,0-3.5,0
		c-0.4,0-0.6-0.2-0.7-0.5c0-0.4,0.3-0.6,0.7-0.6C22.4,15.1,23,15.1,23.6,15.1z"/>
	<path class="st1" d="M20,26.9c0.9,0,1.7,0,2.5,0c0.4,0,0.4,0.3,0.4,0.6c0,0.3,0,0.5-0.4,0.5c-0.8,0-1.6,0-2.5,0
		C20,27.7,20,27.3,20,26.9z"/>
	<path class="st1" d="M18.4,30.2c0,0.4,0,0.7,0,1.1c-0.9,0-1.8,0-2.7,0c-0.1,0-0.2-0.4-0.2-0.6c0-0.2,0.2-0.4,0.3-0.4
		C16.7,30.2,17.5,30.2,18.4,30.2z"/>
	<path class="st1" d="M18.4,28c-0.8,0-1.5,0-2.2,0c-0.6,0-0.7-0.2-0.7-0.7c0-0.1,0-0.2,0-0.4c1,0,1.9,0,2.9,0
		C18.4,27.3,18.4,27.7,18.4,28z"/>
	<path class="st1" d="M20,31.3c0-0.2-0.1-0.3-0.1-0.5c0-0.4,0.1-0.7,0.6-0.7c0.6,0,1.3,0,1.9,0c0.4,0,0.5,0.2,0.5,0.6
		c0,0.3,0,0.6-0.5,0.6C21.6,31.3,20.8,31.3,20,31.3z"/>
	<path class="st1" d="M20,24.8c0-0.4,0-0.7,0-1.1c0.9,0,1.7,0,2.6,0c0.4,0,0.3,0.3,0.3,0.6c0,0.2,0,0.5-0.4,0.5
		C21.7,24.8,20.9,24.8,20,24.8z"/>
	<path class="st1" d="M18.4,23.7c0,0.3,0,0.7,0,1c-1,0-1.9,0-2.9,0c0-0.3,0-0.6,0-1C16.5,23.7,17.4,23.7,18.4,23.7z"/>
	<path class="st1" d="M27.2,23.7c0.1,0.5-0.3,1-0.8,1.1c-0.6,0-1.1,0-1.7,0c-0.4,0-0.4-0.3-0.4-0.5c0-0.3-0.1-0.6,0.4-0.5
		c0.7,0,1.5,0,2.2,0C27,23.7,27.1,23.7,27.2,23.7z"/>
	<path class="st1" d="M31.2,30.3c0-0.5,0-1,0-1.6c0-0.4,0.1-0.7,0.6-0.7c0.4,0,0.6,0.3,0.6,0.7c0,0.8,0,1.7,0,2.5
		c0,0.2,0.2,0.5,0.3,0.6c0.6,0.4,1.1,0.7,1.7,1c0.3,0.2,0.6,0.5,0.4,0.9c-0.2,0.4-0.6,0.3-0.9,0.1c-0.8-0.4-1.5-0.9-2.3-1.4
		c-0.2-0.1-0.4-0.5-0.4-0.7C31.2,31.3,31.2,30.8,31.2,30.3z"/>
</g>
</svg>
